<?xml version="1.0" encoding="utf-8"?>
<!-- Generator: Adobe Illustrator 23.0.1, SVG Export Plug-In . SVG Version: 6.00 Build 0)  -->
<svg version="1.1" id="Layer_1" xmlns="http://www.w3.org/2000/svg" xmlns:xlink="http://www.w3.org/1999/xlink" x="0px" y="0px"
	 viewBox="0 0 100 100" style="enable-background:new 0 0 100 100;" xml:space="preserve">
<style type="text/css">
	.st0{fill:#2B8E43;}
	.st1{clip-path:url(#SVGID_2_);fill-rule:evenodd;clip-rule:evenodd;fill:#1D1D1B;}
</style>
<g>
	
		<rect x="69.02" y="-25.4" transform="matrix(0.7071 -0.7071 0.7071 0.7071 1.5286 62.1408)" class="st0" width="13.51" height="109.25"/>
</g>
<g>
	<g>
		<g>
			<g>
				<g>
					<g>
						<defs>
							<rect id="SVGID_1_" x="39.5" y="-6" width="66" height="66"/>
						</defs>
						<clipPath id="SVGID_2_">
							<use xlink:href="#SVGID_1_"  style="overflow:visible;"/>
						</clipPath>
						<path class="st1" d="M86.9,9.42c-0.02,0.05-0.04,0.1-0.07,0.15c-0.94,1.62-1.87,3.24-2.81,4.85c-1.37,2.37-2.74,4.73-4.11,7.1
							c-0.34,0.59-0.69,1.19-1.03,1.78c-0.01,0.03-0.02,0.05-0.04,0.09h0.2c3.79,0,7.58,0,11.36,0c0.08,0,0.17,0,0.25,0v7.54
							c-0.09,0-0.18,0-0.27,0c-3.67,0-7.34,0-11.01,0c-0.05,0-0.1,0-0.16,0c-0.02,0-0.04,0-0.07,0.01c0.02,0.05,0.04,0.08,0.06,0.12
							c0.1,0.17,0.2,0.34,0.3,0.51c0.66,1.15,1.32,2.29,1.99,3.43c0.64,1.11,1.28,2.22,1.93,3.33c0.83,1.44,1.66,2.88,2.49,4.32
							c0.37,0.64,0.74,1.28,1.11,1.92c0.03,0.05,0.07,0.09,0.07,0.16h-8.73c0.01-0.05-0.02-0.08-0.04-0.11
							c-0.18-0.32-0.36-0.63-0.55-0.95c-1.05-1.82-2.09-3.64-3.14-5.45c-0.65-1.14-1.31-2.27-1.97-3.41
							c-0.02-0.04-0.04-0.07-0.07-0.11c-0.02,0.04-0.05,0.07-0.06,0.1c-0.31,0.53-0.61,1.06-0.92,1.6
							c-0.74,1.28-1.47,2.55-2.21,3.83c-0.84,1.47-1.69,2.93-2.53,4.4c-0.02,0.04-0.03,0.07-0.05,0.11h-8.73
							c0.02-0.05,0.2-0.36,0.27-0.49c0.87-1.5,1.74-3,2.6-4.5c0.83-1.44,1.67-2.89,2.5-4.33c0.52-0.9,1.04-1.8,1.56-2.7
							c0.31-0.53,0.61-1.05,0.91-1.58c0.03-0.05,0.07-0.1,0.08-0.17c-0.07-0.01-0.13-0.01-0.19-0.01c-3.69,0-7.38,0-11.07,0
							c-0.09,0-0.19,0-0.28,0V23.4c0.09,0,0.18,0,0.27,0c3.78,0,7.57,0,11.35,0c0.05,0,0.1,0,0.16,0c0.02,0,0.05,0.01,0.07-0.03
							c-0.01-0.02-0.02-0.04-0.03-0.06c-0.45-0.77-0.89-1.54-1.34-2.31c-0.58-1-1.16-2-1.74-3c-1.48-2.56-2.96-5.11-4.44-7.67
							c-0.17-0.3-0.35-0.61-0.52-0.91c0.76,0,8.67,0,8.69,0c0.01,0.02,3.72,6.43,5.51,9.54c0.02,0.03,0.03,0.05,0.05,0.08
							c0.01,0.01,0.01,0.02,0.01,0.03c0.01,0.01,0.01,0.02,0.02,0.03c0,0,0.01,0.01,0.01,0.01c0,0,0.01,0.01,0.01,0.01
							c0,0,0.01,0,0.03,0.01c1.86-3.22,3.74-6.48,5.6-9.7"/>
					</g>
				</g>
			</g>
		</g>
	</g>
</g>
</svg>
