<?xml version="1.0" encoding="utf-8"?>
<!-- Generator: Adobe Illustrator 23.0.1, SVG Export Plug-In . SVG Version: 6.00 Build 0)  -->
<svg version="1.1" id="Layer_1" xmlns="http://www.w3.org/2000/svg" xmlns:xlink="http://www.w3.org/1999/xlink" x="0px" y="0px"
	 viewBox="0 0 100 100" style="enable-background:new 0 0 100 100;" xml:space="preserve">
<style type="text/css">
	.st0{fill:#FFC726;}
	.st1{clip-path:url(#SVGID_2_);}
	.st2{clip-path:url(#SVGID_4_);fill-rule:evenodd;clip-rule:evenodd;}
</style>
<g>
	
		<rect x="69.02" y="-25.4" transform="matrix(0.7071 -0.7071 0.7071 0.7071 1.5286 62.1408)" class="st0" width="13.51" height="109.25"/>
</g>
<g>
	<g>
		<defs>
			<polygon id="SVGID_1_" points="48.53,0.93 102.54,0.93 105.48,64.94 51.47,64.94 			"/>
		</defs>
		<clipPath id="SVGID_2_">
			<use xlink:href="#SVGID_1_"  style="overflow:visible;"/>
		</clipPath>
		<g class="st1">
			<defs>
				<rect id="SVGID_3_" x="48.53" y="0.93" width="54.01" height="69.89"/>
			</defs>
			<clipPath id="SVGID_4_">
				<use xlink:href="#SVGID_3_"  style="overflow:visible;"/>
			</clipPath>
			<path class="st2" d="M62.97,15.32c0.86-0.49,1.72-0.98,2.58-1.47c0.03,0.03,0.06,0.06,0.08,0.09c0.93,1.22,1.87,2.44,2.8,3.67
				c0.05,0.06,0.09,0.14,0.12,0.21c0.59,1.18,1.18,2.36,1.78,3.54c0.01,0.02,0.02,0.03,0.03,0.07c-0.05,0.03-0.09,0.06-0.14,0.09
				c-1.33,0.79-2.41,1.84-3.24,3.14c-0.69,1.08-1.14,2.24-1.36,3.5c-0.15,0.83-0.18,1.67-0.1,2.51c0.21,2.22,1.08,4.14,2.61,5.76
				c1.24,1.31,2.73,2.2,4.47,2.68c0.12,0.03,0.18,0.01,0.26-0.08c0.35-0.44,0.71-0.88,1.06-1.32c0.06-0.08,0.09-0.15,0.09-0.25
				c-0.03-0.71-0.05-1.43-0.08-2.14c-0.02-0.47-0.03-0.94-0.04-1.41c-0.02-0.73-0.05-1.47-0.08-2.2c-0.02-0.47-0.02-0.95-0.04-1.42
				c-0.02-0.72-0.05-1.45-0.08-2.17c-0.02-0.47-0.03-0.95-0.04-1.42c-0.02-0.73-0.05-1.46-0.08-2.19c-0.01-0.38-0.04-0.75-0.03-1.13
				c0.02-0.47-0.04-0.93-0.18-1.37c-0.31-0.94-0.92-1.57-1.88-1.85c-0.21-0.06-0.34-0.22-0.33-0.44c0.01-0.2,0.05-0.39,0.08-0.59
				c0.04-0.24,0.09-0.47,0.15-0.71c0.03-0.13,0.09-0.25,0.14-0.38c0.03-0.08,0.08-0.15,0.17-0.19c0.03-0.01,0.05-0.03,0.06-0.06
				c0.05-0.11,0.16-0.17,0.25-0.23c0.76-0.53,1.61-0.85,2.54-0.95c1.13-0.13,2.2,0.05,3.22,0.56c0.19,0.09,0.36,0.2,0.54,0.31
				c0.28,0.17,0.47,0.42,0.53,0.75c0.07,0.38,0.15,0.76,0.22,1.14c0.01,0.07,0.02,0.15,0.01,0.22c-0.01,0.07-0.04,0.16-0.09,0.21
				c-0.12,0.11-0.24,0.23-0.4,0.3c-0.69,0.32-1.14,0.86-1.39,1.57c-0.17,0.46-0.23,0.94-0.24,1.42c-0.01,0.7-0.03,1.4-0.05,2.1
				c-0.01,0.3,0,0.61-0.01,0.91c-0.01,0.72-0.03,1.44-0.05,2.16c-0.01,0.28-0.01,0.56-0.01,0.84c-0.02,0.86-0.04,1.73-0.05,2.59
				c-0.01,0.71-0.02,1.41-0.04,2.12c-0.01,0.72-0.03,1.44-0.05,2.16c-0.01,0.29-0.01,0.58-0.01,0.87c0,0.17-0.01,0.34-0.01,0.51
				c0,0.05,0.02,0.11,0.05,0.14c0.41,0.5,0.82,0.99,1.23,1.49c0,0,0.01,0,0.01,0.01c2.41-0.68,5.42-2.91,6.43-6.69
				c0.56-2.08,0.43-4.14-0.39-6.13c-0.82-2-2.19-3.53-4.03-4.66c0.07-0.16,0.14-0.31,0.22-0.46c0.53-1.11,1.06-2.22,1.59-3.34
				c0.04-0.07,0.08-0.14,0.13-0.21c0.95-1.22,1.9-2.43,2.84-3.65c0.02-0.02,0.04-0.04,0.06-0.08c0.85,0.49,1.7,0.98,2.56,1.48
				c-0.72,1.61-1.43,3.22-2.15,4.84c0.56,0.57,1.07,1.18,1.54,1.84c1.46-0.65,2.9-1.29,4.36-1.94c0.5,0.87,0.99,1.72,1.49,2.59
				c-1.35,0.98-2.69,1.96-4.04,2.94c0.26,0.78,0.45,1.57,0.58,2.39c1.52,0.16,3.04,0.32,4.57,0.48v2.96
				c-1.51,0.16-3.02,0.32-4.53,0.48c-0.08,0.59-0.19,1.17-0.34,1.74c-0.15,0.57-0.34,1.13-0.56,1.69c1.19,0.87,2.38,1.74,3.58,2.62
				c-0.49,0.85-0.98,1.7-1.48,2.56c-1.35-0.59-2.7-1.18-4.04-1.77c-0.38,0.42-0.73,0.84-1.12,1.23c-0.39,0.39-0.8,0.75-1.22,1.14
				c0.61,1.37,1.23,2.76,1.86,4.17c-0.86,0.5-1.71,0.99-2.59,1.49c-0.45-0.61-0.89-1.23-1.33-1.84c-0.44-0.61-0.88-1.22-1.33-1.84
				c-1.05,0.44-2.13,0.75-3.25,0.92c-0.01,0.04-0.03,0.08-0.03,0.11c-0.36,1.55-0.71,3.1-1.07,4.65c-0.01,0.03-0.01,0.06-0.01,0.09
				c-0.01,0.49-0.02,0.98-0.03,1.47c0.58,0.35,0.94,0.84,0.93,1.54c-0.01,0.69-0.36,1.17-0.96,1.5c-0.01,0.84-0.03,1.68-0.04,2.51
				c-0.11,0.03-1.14,0.05-1.41,0.02c-0.01-0.12-0.02-0.24-0.02-0.37c-0.01-0.66-0.03-1.31-0.04-1.97c0-0.02,0-0.05,0-0.07
				c0-0.08-0.03-0.13-0.11-0.17c-0.19-0.1-0.35-0.23-0.48-0.39c-0.67-0.79-0.48-1.98,0.39-2.52c0.04-0.02,0.07-0.05,0.11-0.07
				c0-0.26,0-0.52,0-0.78c0-0.12-0.01-0.24-0.01-0.36c0.01-0.34-0.1-0.66-0.17-0.98c-0.3-1.31-0.61-2.62-0.91-3.94
				c-0.01-0.06-0.03-0.12-0.05-0.2c-1.26-0.16-2.48-0.49-3.67-0.98c-0.91,1.24-1.82,2.48-2.73,3.72c-0.87-0.5-1.72-0.99-2.59-1.48
				c0.64-1.42,1.27-2.83,1.91-4.26c-0.84-0.68-1.59-1.44-2.27-2.3c-1.38,0.6-2.76,1.2-4.15,1.81c-0.49-0.85-0.98-1.69-1.48-2.56
				c1.22-0.89,2.44-1.77,3.66-2.66c-0.44-1.09-0.74-2.21-0.9-3.38c-1.53-0.16-3.07-0.32-4.59-0.48c-0.04-0.11-0.05-2.66-0.02-2.96
				c0.76-0.09,1.54-0.17,2.31-0.26c0.77-0.09,1.54-0.17,2.32-0.25c0.12-0.8,0.3-1.57,0.54-2.34c-1.36-1-2.71-1.99-4.07-2.99
				c0.5-0.85,0.99-1.7,1.5-2.56c1.46,0.64,2.91,1.28,4.35,1.92c0.25-0.32,0.49-0.65,0.74-0.96c0.25-0.31,0.52-0.6,0.79-0.91
				C64.41,18.54,63.69,16.94,62.97,15.32"/>
			<path class="st2" d="M78.01,16.54c-1-0.55-2.04-0.73-3.14-0.69c-0.31,0.01-0.62,0.06-0.92,0.09c-0.05,0-0.1,0.01-0.16,0.02
				c-0.09-0.19-0.15-0.38-0.19-0.58c-0.15-0.72-0.1-1.44,0.1-2.15c0.31-1.08,0.82-2.05,1.48-2.95c0.33-0.44,0.68-0.87,1.02-1.3
				c0.4-0.51,0.78-1.04,1.07-1.63c0.22-0.45,0.38-0.92,0.4-1.43c0-0.06,0.01-0.12,0.04-0.19c0.02,0.03,0.04,0.05,0.06,0.08
				c0.18,0.51,0.33,1.03,0.38,1.57c0.03,0.34,0.04,0.67,0.06,1.01c0,0.07,0.01,0.14,0.02,0.22c0.03,0.22,0.02,0.45-0.07,0.66
				c-0.17,0.42-0.34,0.83-0.53,1.24c-0.4,0.88-0.86,1.72-1.38,2.53c-0.12,0.2-0.23,0.4-0.33,0.61c-0.13,0.25-0.15,0.53-0.11,0.81
				c0.05,0.37,0.4,0.53,0.73,0.35c0.18-0.1,0.29-0.25,0.36-0.44c0.09-0.25,0.1-0.51,0.07-0.77c-0.02-0.18-0.06-0.36-0.08-0.54
				c-0.01-0.07-0.01-0.14,0.01-0.21c0.05-0.22,0.16-0.4,0.28-0.58c0.04-0.06,0.09-0.13,0.13-0.19c0.19-0.26,0.38-0.53,0.49-0.83
				c0.02-0.05,0.04-0.12,0.1-0.1c0.04,0.01,0.08,0.07,0.09,0.11c0.12,0.58,0.39,1.12,0.51,1.7c0.11,0.52,0.18,1.05,0.13,1.58
				c-0.05,0.52-0.15,1.02-0.33,1.51c-0.05,0.13-0.12,0.26-0.19,0.39C78.09,16.47,78.04,16.51,78.01,16.54"/>
			<path class="st2" d="M73.19,16.16c-0.11,0.05-0.22,0.08-0.31,0.13c-0.21,0.11-0.41,0.24-0.61,0.36
				c-0.05,0.03-0.11,0.07-0.18,0.03c-0.17-0.64-0.49-1.22-0.72-1.84c-0.03-0.08-0.06-0.16-0.09-0.25c-0.09-0.26-0.15-0.52-0.13-0.79
				c0.02-0.24-0.02-0.49,0.04-0.73c0.18-0.72,0.48-1.4,0.86-2.03c0.27-0.44,0.59-0.85,0.95-1.22c0.16-0.17,0.32-0.35,0.48-0.52
				c0.14-0.16,0.22-0.33,0.26-0.54c0.07-0.41,0.07-0.83,0.06-1.24c-0.01-0.52-0.05-1.04,0.02-1.56c0.03-0.24,0.09-0.48,0.21-0.69
				c0.18-0.33,0.38-0.65,0.58-0.97c0.12-0.19,0.26-0.37,0.44-0.53c0.02,0.08,0,0.13-0.03,0.18c-0.1,0.17-0.1,0.36-0.09,0.55
				C74.97,5,75.1,5.51,75.29,6.01c0.23,0.58,0.5,1.15,0.81,1.7c0.05,0.09,0.06,0.18,0,0.27c-0.17,0.26-0.32,0.53-0.51,0.77
				c-0.5,0.66-0.98,1.33-1.43,2.02c-0.52,0.81-0.91,1.68-1.14,2.62c-0.18,0.74-0.17,1.48-0.04,2.23c0.03,0.16,0.11,0.3,0.17,0.46
				C73.17,16.1,73.18,16.12,73.19,16.16"/>
			<path class="st2" d="M71.77,10.66c-0.09-0.18-0.14-0.36-0.18-0.55c-0.08-0.4-0.03-0.79,0.08-1.17c0.08-0.29,0.17-0.58,0.25-0.88
				c0.11-0.42,0.13-0.86,0.14-1.29c0-0.28-0.04-0.55-0.09-0.82c-0.01-0.03-0.01-0.07-0.01-0.1c0-0.01,0.01-0.01,0.02-0.02
				c0.01,0,0.02,0,0.02,0.01c0.12,0.22,0.31,0.38,0.48,0.56c0.47,0.51,0.74,1.11,0.78,1.81c0.01,0.14,0.02,0.29,0.02,0.43
				c0.01,0.11-0.03,0.2-0.1,0.28c-0.53,0.51-0.96,1.09-1.37,1.7C71.79,10.63,71.79,10.64,71.77,10.66"/>
		</g>
	</g>
</g>
</svg>
