<?xml version="1.0" encoding="utf-8"?>
<!-- Generator: Adobe Illustrator 23.0.1, SVG Export Plug-In . SVG Version: 6.00 Build 0)  -->
<svg version="1.1" id="Layer_1" xmlns="http://www.w3.org/2000/svg" xmlns:xlink="http://www.w3.org/1999/xlink" x="0px" y="0px"
	 viewBox="0 0 500 650" style="enable-background:new 0 0 500 650;" xml:space="preserve">
<style type="text/css">
	.st0{clip-path:url(#SVGID_2_);}
	.st1{fill:#FFFFFF;}
	.st2{fill:none;}
	.st3{clip-path:url(#SVGID_4_);}
	.st4{clip-path:url(#SVGID_6_);fill-rule:evenodd;clip-rule:evenodd;}
	.st5{clip-path:url(#SVGID_8_);}
</style>
<g>
	<g>
		<defs>
			
				<rect id="SVGID_1_" x="26" y="352.9" transform="matrix(0.7168 -0.6973 0.6973 0.7168 -206.0078 393.9825)" width="712" height="195.4"/>
		</defs>
		<clipPath id="SVGID_2_">
			<use xlink:href="#SVGID_1_"  style="overflow:visible;"/>
		</clipPath>
		<g class="st0">
			<g>
				<path d="M248.3,398.7c0.4-5.7,0.9-11.4,1.3-17.2c0.7-9.1,1.5-18.2,2.1-27.2c0.4-5.8,0.6-11.5,0.9-17.3c0.5-8.3,1-16.6,1.5-24.8
					c0.3-4.2,0.5-8.5,0.8-12.7c2-24,5.4-47.7,13.3-70.5c3.6-10.5,8-20.6,13.8-30.1c0.3-0.5,0.7-1,1.2-1.6c0.7,0.9,1.2,1.5,1.8,2.2
					c1.1,1.4,1.2,2.6,0.6,4.4c-2.9,8.4-5.7,16.9-8.1,25.5c-4.8,16.7-8.3,33.6-11.1,50.7c-2.3,14-4.2,28-5.5,42.1
					c-0.8,9.5-1.8,18.9-2.4,28.4c-0.8,11.2-1.3,22.4-1.8,33.7c-0.3,5.5-0.5,10.9-0.6,16.4c-0.2,8.1-0.5,16.2-0.6,24.3
					c-0.3,22.6-0.5,45.2-0.6,67.9c-0.1,7.5,0.1,15,0.2,22.5c0.2,9.5,0.4,19.1,0.6,28.6c0,1,0.2,2,0.3,3c-2.1,0.7-20,0.8-24.3,0.2
					c0-1.5,0-3.1,0-4.7c0.1-3.4,0.2-6.9,0.2-10.3c0.2-13.4,0.4-26.8,0.6-40.2c0.2-14.2,0.3-28.4,0.3-42.6c0-7.6-0.3-15.2-0.6-22.8
					c-0.5-10.7-1-21.4-1.8-32.1c-1.9-25.9-4.6-51.8-8.6-77.6c-3-19.5-6.4-39-10.2-58.4c-3.6-18-7.9-35.8-12-53.7
					c-0.9-3.8-0.5-4.7,3-6.4c1.3-0.7,2.8-1.1,4.5-1.7c0.6,1.3,1.2,2.3,1.7,3.4c4,9.8,6.5,20,8.3,30.4c2,11.6,4,23.2,6,34.7
					c0.2,1,0.5,1.9,1,2.8c-1-24.4-5.7-48.4-9.2-72.7c3.1-1.5,6.3-2.6,9.7-2.6c10.2,0,20.3,0,30.5,0c1.4,0,2.8,0.2,4.6,0.3
					c0,1.6,0.1,3.1,0,4.6c-0.4,6.5-0.7,12.9-1.2,19.4c-0.7,8.9-1.5,17.7-2.2,26.6c-0.5,6.5-1,12.9-1.5,19.4
					c-0.7,8.9-1.4,17.7-2.1,26.6c-0.6,7.5-1,15-1.5,22.4c-0.5,7.8-1.1,15.5-1.6,23.3c-0.3,4.6-0.5,9.3-0.6,14
					c-0.3,12.2-0.6,24.3-0.9,36.5c-0.1,4.3-0.3,8.6-0.5,12.9C247.9,398.7,248.1,398.7,248.3,398.7z"/>
				<path d="M256.4,34.9c16.4,3.6,34.8,26.1,25.3,54.2c1.1,0.3,2.3,0.7,3.4,1c15.1,4.1,25.2,13.5,29.7,28.5c2,6.5,2.3,13.1,0.8,20.4
					c-0.5-3.9-0.8-7.2-1.5-10.3c-2.4-12-12.7-22.1-24.7-24c-11.5-1.9-21.2,1.8-28.9,10.5c-0.4,0.5-0.8,0.9-1.2,1.4
					c-0.4,0.5-0.8,0.9-1.4,1.7c-1.6-1-3.4-1.8-4.8-3c-0.6-0.6-0.7-2-0.7-3c0-2.3-0.1-4.5-1.7-6.3c-0.9-0.9-1.9-1.8-2.9-2.6
					c-0.9-0.6-1.9-1.1-2.9-1.6c0-2.1,0-4.1,0-6.2c15.2-2.2,25.3-10.4,28.6-25.5c1.5-6.9,0.8-13.9-2.6-20.4
					C267.5,43.2,262.5,38.5,256.4,34.9z"/>
				<path d="M230.6,120.6c1.9-1,3.6-2,5.4-2.9c1.2,0.7,2.2,1.3,3.3,1.8c2.5,1.2,5.2,1.8,7.5,0.1c3.8-2.6,6.5-1.2,9.4,1.5
					c-5.8,14.9-3.9,28.3,8.7,39c9.1,7.7,23,10.1,37.9,0.9c0,1.2-0.8,1.7-1.4,2.2c-7,5.4-14.8,8.5-23.8,9
					c-13.7,0.6-24.6-4.7-33.5-14.8c-0.2-0.2-0.4-0.4-0.9-0.7c-9.8,11.3-22.2,16.4-37,14.8c-9.1-1-17-4.9-23.5-11.7
					c13.6,8.6,27.4,10.2,40.1-0.8C234.7,148.5,236.6,135.3,230.6,120.6z"/>
				<path d="M171.4,137.7c-2.4-11.4-0.1-21.9,6.3-31.4c6.4-9.6,15.6-15.2,27.2-17.4c-0.4-1.3-0.6-2.3-0.9-3.4
					c-3.9-14.2-1.3-27.1,7.9-38.6c4.3-5.3,9.5-9.4,16-11.8c0.9-0.3,1.9-0.6,3-0.7C216.3,43,209.4,55.2,213.5,72
					c3.5,14,13.7,21.2,27.9,23.5c0,0.8,0.1,1.7,0.2,2.6c0.3,2.5-0.3,4.4-2.9,5.6c-2.9,1.4-4.5,4.1-4.1,7.2c0.4,3.7-1.6,5.1-4.3,6.3
					c-0.4,0.2-0.7,0.3-1.1,0.5c-8.9-11.2-20.1-17-34.3-12.9C178.7,109.5,172.1,121.6,171.4,137.7z"/>
				<path d="M225.2,480.4c-5.2-0.7-10-1.2-14.8-1.8c-3.8-0.5-6.3-2.4-7.1-6.4c-0.5-2.9-1.4-5.7-2.1-8.6c-1-3.8-3.3-6.4-6.7-8.2
					c-1.2-0.6-2.3-1.3-3.3-1.9c-0.6-5.1,5.3-25.4,8.8-30.6c4,1,8,2.2,12.2,3c4.1,0.9,8.4,1.5,12.8,2.2c0.2,2.3,0.6,4.7,0.6,7.1
					c0.1,13.5,0,27,0,40.5C225.7,477.1,225.4,478.5,225.2,480.4z"/>
				<path d="M261.8,480.1c-0.2-1-0.6-1.9-0.6-2.8c-0.1-15.5-0.2-31-0.2-46.5c0-0.4,0.2-0.8,0.3-1.3c5.7-0.2,10.8-2.7,16.1-4.2
					c2.7-0.8,5.5-1.3,8.3-2c1.4-0.3,2.4,0.1,2.9,1.5c0.6,1.6,1.3,3.2,1.9,4.8c1.9,5.7,3.7,11.3,5.6,17c1.8,5.5,2,5.8-3.3,8.4
					c-4.6,2.2-6.7,5.8-7.9,10.5c-0.8,3.2-1.9,6.4-3,9.5c-0.7,1.8-2,2.9-4.1,3.1c-4,0.5-8,1.1-12,1.7
					C264.5,479.9,263.3,480,261.8,480.1z"/>
				<path d="M404.7,230.1c0-2.8,0-5,0-7.4c3.3-0.5,6.4-1.1,9.6-1.6c4.7-0.7,9.3-2.1,14.1-1.6c1.9,0.2,3.8,0.4,5.7,0.9
					c3.1,1,4.6,3.4,4.9,6.6c0.5,5.9-1.5,10.3-6.7,13.6c-4.8,3-9.9,5.2-15.2,6.7c-9.8,2.8-19.7,5.4-29.6,7.9
					c-4.8,1.2-9.7,1.9-14.6,2.6c-3.9,0.6-5.9-1-6.3-5c-0.1-1,0-2,0-3c0.1-2.2,1.2-3.3,3.2-4.2C381.5,240.5,393.1,235.2,404.7,230.1z
					"/>
				<path d="M386.6,201.7c-0.7-1.7-1.3-3.2-2.1-5c1.4-0.8,2.6-1.5,3.9-2.2c5.1-2.8,10-5.8,15.5-7.6c4.6-1.5,9.1-1.7,13.8-0.7
					c2.1,0.4,3.5,1.7,4.1,3.7c1.6,4.7,1.6,10.1-2.7,14.3c-3.9,3.7-8,6.7-13,8.8c-2.8,1.2-5.3,2.9-7.9,4.6
					c-10.7,6.8-21.6,13.3-33.3,18.2c-0.3,0.1-0.6,0.2-0.9,0.3c-3.5,1.3-5.5,0.8-7.1-1.8c-2.2-3.3-2-5.8,0.7-8.4
					c1.5-1.4,3.1-2.6,4.8-3.8c7-5,13.7-10.5,19.8-16.6C383.7,204.3,385,203.1,386.6,201.7z"/>
				<path d="M369,177.2c-1.2-2-2.3-4-3.4-5.9c0.6-0.5,1.1-0.9,1.6-1.2c5.3-3.6,10.6-7.1,15.9-10.7c3.2-2.3,6.7-3.3,10.6-3.2
					c4.3,0.1,6.7,2.4,7,6.7c0.6,7.6-2.5,13.9-7.8,19.1c-3.5,3.4-7.4,6.3-11,9.5c-8.6,7.5-17.4,14.9-25.8,22.6c-4,3.7-8.2,3.7-13,2.4
					c-1-4.3-0.5-7.8,2.6-11.3c7.4-8.3,14.4-17,21.5-25.5C367.9,178.9,368.4,178,369,177.2z"/>
				<path d="M363.9,349.7c2-5,4.5-6.6,9.4-5.8c6.6,1,13,3.2,19.3,5.4c3.9,1.4,7.9,2.5,11.8,4c2.6,0.9,4.7,0.7,6.7-1.3
					c0.5-0.5,1.1-0.8,1.6-1.2c0.3,0,0.6,0,0.7,0.1c6.8,4.9,13.7,9.8,20.4,14.8c1.3,0.9,2.4,2.2,3.3,3.5c1.2,1.8,1.1,3.7,0.2,5.8
					c-2.4,5.5-10.3,10.1-17.1,6.7c-6-3-12-5.8-18.1-8.7c-4.8-2.2-9.6-4.4-14.3-6.6c-1.8-0.9-3.7-1.7-5.4-2.8
					c-4.6-3-9.1-6.1-13.6-9.2C367,353,365.2,351.5,363.9,349.7z"/>
				<path d="M416.3,255.4c1.7,0,3.2-0.1,4.8,0c6.4,0.6,12.9,1.1,19.3,1.9c5.5,0.6,8.1,3.4,8.6,8.9c0,0.1,0,0.2,0,0.3
					c0.6,4.3-1,7.2-5,9c-5.4,2.5-11.1,3.7-17,3.9c-10.9,0.4-21.8,1.1-32.8,1.5c-5.9,0.2-11.8,0.2-17.6,0.2c-3,0-4.2-1.1-4.7-4.1
					c-0.2-1.2-0.1-2.4-0.1-3.6c0.1-1.8,0.9-3.1,2.7-3.7c2.3-0.7,4.6-1.7,7-1.9c7.7-0.8,15.1-3,22.6-4.8c2.6-0.6,5.1-1.4,7.7-1.8
					c2.1-0.3,3.2-1.4,3.6-3.4C415.6,257.2,415.9,256.5,416.3,255.4z"/>
				<path d="M157.2,203c-3.9-4.8-7.5-9.3-11-13.8c-4.3-5.4-8.6-10.8-12.7-16.3c-1.4-1.9-2.9-2.6-5.1-1.8c-0.7,0.3-1.5,0.2-2.6,0.4
					c-2.4-7-4.9-13.9-6.9-20.8c-0.8-2.6-0.6-5.6-0.5-8.4c0-1.5,0.7-3,1.3-4.3c2.5-5.1,8.5-6.1,12.6-2c1.8,1.8,3.5,3.7,4.8,5.9
					c4,6.5,7.8,13,11.5,19.6c4.4,7.8,8.7,15.8,13.1,23.7c0.8,1.5,1.6,3.1,2.2,4.7c1.7,4.7,0.7,7.9-3.1,11
					C159.6,201.6,158.4,202.2,157.2,203z"/>
				<path d="M332.1,202.7c-1.8-1-3.2-2-4.7-2.8c-2-1.1-2.7-2.8-2.8-5c-0.1-4.9,1-9.5,3.1-13.8c3.9-8,7.9-16,12.2-23.8
					c4.4-7.8,9.2-15.3,13.9-22.9c0.3-0.4,0.5-1,0.9-1.2c3.5-1.6,7.1-3.2,11.1-2c1.3,0.4,2.7,1.6,3.4,2.7c4.4,6.8,4.4,13.8,0.3,20.6
					c-3.3,5.4-7,10.4-10.7,15.5c-4.4,6.2-8.9,12.3-13.3,18.5C341.7,194,337,198.2,332.1,202.7z M341.5,177.3c3-1.9,4.7-4.4,6.6-6.7
					c3.6-4.4,7.1-8.8,10.6-13.2c1.5-1.9,2.8-4,2.7-6.6c-0.1-1.9-0.8-2.6-2.6-2.4c-1.8,0.2-3.7,0.7-4.8,2.3
					c-3.3,4.9-6.8,9.8-9.9,14.9C342.2,168.9,340.9,172.7,341.5,177.3z"/>
				<path d="M340.1,387.2c3.9-0.6,7.4,0.1,10.5,2.7c5.3,4.4,10.7,8.7,16.1,13c2.1,1.6,4.2,3.2,6.2,4.9c1.6,1.4,3.1,1.7,5,0.8
					c0.8-0.4,1.7-0.6,2.4-0.8c0.3,0.1,0.6,0.2,0.7,0.3c4.4,6.8,8.9,13.6,13.2,20.4c1.3,2.1,1.7,4.5,1.7,7c0,2.3-1,3.9-2.9,5
					c-5.8,3.3-12.2,3.5-17.8-2.1c-2.4-2.4-4.5-5.2-7-7.5c-7.3-6.9-13.5-14.8-20.1-22.4c-1.6-1.8-3.3-3.6-4.9-5.4
					c-0.9-1-1.8-1.9-2.6-3C336.7,394.8,336.5,392.2,340.1,387.2z"/>
				<path d="M119.4,257.5c-2.7,1.2-5.4,1.8-8,1.4c-7.9-1.2-15.8-2.5-23.6-3.9c-2.3-0.4-4.5-1.3-6.7-2c-5.4-1.9-10.8-3.9-16.3-5.7
					s-10.2-4.9-14.5-8.7c-3.4-2.9-3.8-6.9-2.6-10.9c1.4-4.9,4.7-8.1,9.7-9.5c2.7-0.8,5.3-0.4,7.7,0.8c6.3,3.3,12.5,6.7,18.7,10.1
					c7.3,3.9,14.7,7.7,21.9,11.8c3.6,2,6.9,4.6,10.5,6.7c2.5,1.6,3.6,3.7,3.3,6.6C119.3,255.3,119.4,256.4,119.4,257.5z M64.9,231.2
					c-2,4.6-1.5,6.3,2.6,8.3c5.9,3,12.3,4.7,18.7,6.1c1.4,0.3,2.9,0.6,4.6,0.9c0.2-2,0.3-3.7,0.4-5.2c-3-1.3-5.7-2.3-8.3-3.6
					c-2.6-1.3-5.1-2.9-7.7-4.2C72,231.9,68.8,230.4,64.9,231.2z"/>
				<path d="M84.8,221c-2.1-2.1-4.2-4-6-6.1c-2.7-3-5.2-6.2-7.7-9.4c-2-2.5-3.3-5.3-3.8-8.5c-0.8-4.8,1.2-8.3,4.9-11
					c1.5-1.1,3.3-1.6,5.2-0.7c2,1,4,1.9,5.8,3.3c6.7,4.9,13.4,9.8,19.8,15.1c7.5,6.1,14.7,12.4,21.9,18.7c1.3,1.1,2.2,2.6,3.4,3.9
					c2.7,3.2,1.6,7.5-0.6,10.4c-0.3,0.4-1,0.6-1.5,0.7c-2,0.2-3.8-0.5-5.5-1.5c-9.2-5.5-18.4-11-27.6-16.5c-4.3-2.6-3.6-1.8-6.8,0.6
					C86,220.1,85.7,220.3,84.8,221z"/>
				<path d="M372.4,321.5c3.6-0.5,7-1.4,10.4-1.3c6.6,0,13.1,0.5,19.7,0.9c5.2,0.3,10.3,0.4,15.4,0.9c6.8,0.6,13.7,1.4,20.5,2.4
					c2.1,0.3,4.3,1.2,6.2,2.3c4.1,2.4,5.4,6.4,3.9,10.7c-2.8,8-9.3,11.7-17.3,10.5c-2.8-0.4-5.5-1.5-8.2-2.2
					c-8.8-2.1-17.5-4.3-26.4-6c-8.2-1.6-15.6-5-22.8-9c-0.9-0.5-1.5-1-1.4-2.1C372.4,326.4,372.4,324.2,372.4,321.5z M400.5,331
					c0,0.2-0.1,0.5-0.1,0.7c3.8,1.2,7.7,2.5,11.6,3.4c5.3,1.3,10.7,2.4,16.2,1.7c2-0.3,2.5-0.9,2.6-3c0.1-2.2-0.5-3.2-2.5-3.4
					c-2.5-0.3-5-0.6-7.5-0.7C413.9,329.4,407.2,330,400.5,331z"/>
				<path d="M374.9,305.3c0-2.1,0-3.9,0-5.8c-0.1-1.9,0.8-3.2,2.6-3.6c2.8-0.8,5.7-1.6,8.6-1.9c10-1.1,20.1-2.1,30.3-3.1
					c0.5-1.4,0.9-2.7,1.4-4.3c2.2,0.2,4.4,0.3,6.6,0.7c4.9,0.8,9.8,1.5,14.6,2.5c1.8,0.4,3.6,1.4,5.2,2.5c2.7,1.8,4.2,4.4,4.3,7.6
					c0,1-0.3,2.3-0.9,3.1c-3.4,4.6-7.9,7.7-13.7,8c-4.1,0.3-8.3,0.1-12.4,0c-6.8-0.2-13.5-0.5-20.3-0.8
					C392.2,309.7,383.6,307.9,374.9,305.3z"/>
				<path d="M355.9,464c-4.7,0.2-8.2-1.9-11-5.4c-4.5-5.6-8.3-11.7-11.9-18c-5-8.8-9.9-17.7-14.9-26.5c-1.4-2.5-1.4-5.1-0.9-7.7
					c0.2-1,1.2-2.1,2.1-2.8c2.5-1.8,6.7-1.3,8.8,1c4.7,5.4,9.3,11,14,16.5c1.4,1.6,2.6,3.4,4,5c1.9,2.2,4,4,7.3,3.6
					c1.9-0.2,3.1,0.7,4,2.5c2.8,5.5,5.4,11.2,6.4,17.3c0.5,2.9,0.6,5.9-0.2,8.8C362.2,462.9,360.7,464,355.9,464z"/>
				<path d="M110.5,294.9c0,3.8,0,7.3,0,11c-4.2,1.7-8.6,2.4-13,3c-7.6,1-15.3,1.8-22.9,2.6c-9,0.9-18,1-27,0.6
					c-5-0.2-9.8-4.9-10.2-10c-0.1-1.4-0.1-2.8,0-4.3c0.4-6.7,5.3-10.7,12.1-10.1c6.6,0.6,13.1,1,19.7,1.5
					c12.7,0.9,25.5,1.6,37.8,5.1C108,294.4,109.1,294.6,110.5,294.9z M85.8,301.3c-0.8-2.7-2-4.1-4.6-4.1c-1.4,0-2.8-0.3-4.2-0.4
					c-6.6-0.5-13.1-0.9-19.7,0.1c-2.7,0.4-3.3,1.5-2.3,3.9c0.5,1.4,1.6,1.9,3,2.2C67.3,304.8,76.4,302.8,85.8,301.3z"/>
				<path d="M361.4,364.1c2,0.6,4.1,1,5.9,1.9c11.6,5.9,22.7,12.5,33.6,19.6c4.2,2.8,8.5,5.5,12.7,8.3c1.4,0.9,2.8,2.1,4,3.3
					c2.2,2.2,2.6,5.2,1.1,7.8c-1,1.7-2.2,3.5-3.5,4.9c-2.9,3.2-6.6,4.2-10.8,3.1c-6.5-1.7-12.3-4.9-17.4-9.1
					c-8.8-7.3-17.4-14.9-25.8-22.6c-2.6-2.3-4.3-5.6-6.5-8.4c-2.5-3.2-0.5-8.2,4.4-8.5c0.7,0,1.4,0,2.1,0
					C361.3,364.4,361.3,364.3,361.4,364.1z M377.8,381.7c1.2,3.4,3,5.9,5.4,7.7c4.3,3.2,8.8,6.2,13.2,9.2c1.6,1.1,3.5,1,5.2,0.3
					c2.3-0.8,2.6-1.8,0.8-3.4c-1.8-1.6-3.9-2.9-5.9-4.3c-3.5-2.3-7.2-4.5-10.7-6.9C383.6,382.9,381.1,382,377.8,381.7z"/>
				<path d="M145.7,387.3c0.2,1,0.5,1.9,0.6,2.7c0.7,3.6,0.4,6.9-2.5,9.8c-4,4-7.7,8.3-11.6,12.4c-2.7,2.9-5.4,5.7-8.2,8.5
					c-1.3,1.3-1.8,2.7-1.2,4.6c1,3.2,0.9,3.3-1.8,5.2c-4,2.9-8.1,5.4-12.7,7c-3.6,1.2-7.2,1.5-11,0.9c-4.5-0.8-8.3-5.2-7.9-11
					c0.1-0.8,0.5-1.8,1-2.5c1-1.3,2-2.6,3.3-3.5c6.1-4.1,10.9-9.6,16.8-14c8.5-6.2,17.1-12.3,25.6-18.5
					C139.1,386.8,142.3,386.9,145.7,387.3z"/>
				<path d="M146.7,209.9c-2.6,2.7-5.1,5.4-7.7,8.1c-4-2.6-7.8-5.1-11.6-7.6c-8.5-5.8-16.1-12.6-23.6-19.6c-2.7-2.6-5.7-4.9-8.2-7.6
					c-3.1-3.3-5.1-7.2-6.9-11.4c-1.3-3-0.9-5.7,0.8-8.4c1.7-2.6,4-4.6,6.6-6.2c2.2-1.4,4.5-1.5,6.6-0.3c1.9,1.1,3.6,2.6,5,4.3
					c3.8,4.6,7.1,9.8,11.2,14c9.1,9.2,16.2,20,24,30.2C144.1,206.7,145.3,208.1,146.7,209.9z M123.8,192.4c-3.7-4.6-7.3-9-10.9-13.4
					c-1.2-1.4-2.3-2.8-3.6-4.1c-1.6-1.7-3.9-1.7-6-0.1c-1.5,1.1-1.7,2.3-0.1,4.5c1.7,2.3,3.7,4.6,5.9,6.5c3.9,3.3,8.1,6.3,12.2,9.4
					C122.2,194.2,122.8,193.5,123.8,192.4z"/>
				<path d="M149.9,447.1c-5.3,3-10.3,6.2-15.5,8.8c-4.4,2.2-9.2,3-14.2,2.4c-0.4,0-0.8-0.1-1.2-0.1c-4.6-0.9-5.5-2.3-4.7-7
					c0.4-2.3,1.2-4.5,2.7-6.3c1.9-2.3,3.5-4.7,5.6-6.8c8.2-8.2,16.5-16.4,24.9-24.5c2.5-2.5,5.2-4.8,7.9-7.1c2.4-2.1,4.9-4,8.3-3.8
					c3.1,0.2,5.9,4.9,4.3,7.7c-0.8,1.5-1.8,2.9-2.8,4.3c-5.2,7.4-10.4,14.9-15.8,22.3c-2,2.7-2.5,5.2-0.4,8
					C149.3,445.4,149.4,446,149.9,447.1z"/>
				<path d="M114.8,332.9c-7.4,2.1-14.4,3.4-21.3,4.5c-7,1.1-14,2-21,3c0.1,0.4,0.1,0.7,0.2,1c1.3,2.9,0.9,3.8-2.1,4.5
					c-0.9,0.2-1.8,0.4-2.7,0.3c-6.5-0.5-12.9-1.2-19-3.6c-5.2-2-7-6.3-7.1-11c0-2.3,0.9-3.9,2.8-5c1.3-0.7,2.7-1.5,4.1-1.9
					c5.1-1.4,10.3-1.7,15.6-1.5c4.3,0.2,8.7-0.2,13-0.5c4.9-0.3,9.9-0.8,14.8-1.1c3.8-0.2,7.7-0.3,11.5-0.4c2.1,0,4.2,0.2,6.3,0.4
					c2.1,0.2,3.4,1.5,3.8,3.4C114.3,327.6,114.5,330.1,114.8,332.9z"/>
				<path d="M160.8,478.6c-8.1,0.1-15.8-8.5-11.8-17.1c1.4-3,2.9-6.1,4.9-8.7c7.3-9.2,13.9-18.9,20.6-28.6c1.8-2.6,4.2-4.9,6.5-7.2
					c2.6-2.5,5.6-1.9,8.5-0.8c1.6,0.7,2.6,2.1,2.3,3.9c-0.4,2.6-0.8,5.2-1.6,7.7c-1.2,3.7-2.9,7.1-4.2,10.8
					c-1.8,5.3-3.4,10.6-4.9,16c-1.9,6.8-5.2,13-9.6,18.5C169,476.4,164.6,478.5,160.8,478.6z M179.2,435.6c-0.3-0.1-0.5-0.2-0.8-0.3
					c-0.4,0.3-0.8,0.6-1.1,0.9c-4.8,5.5-9.1,11.4-13.1,17.5c-0.6,1-1,2.2-1.3,3.4c-0.5,2,0.5,3.8,2.5,4.7c1.6,0.8,2.6,0.4,3.9-1.6
					c3.4-5.1,6-10.6,7.7-16.5C177.8,441.1,178.5,438.3,179.2,435.6z"/>
				<path d="M101.5,406.1c-2.9,0.9-5.6,1.8-8.4,2.5c-4.8,1.4-9.6,2.6-14.6,2.4c-3.9-0.2-6.8-2.5-8.2-6.6c-1.2-3.7-0.4-6.7,3-9
					c4.8-3.2,9.8-6.2,14.7-9.2c7.8-4.8,15.6-9.5,23.4-14.2c2.9-1.7,6-3,9-4.5c0.6-0.3,1.3-0.5,2-0.7c3.9-1.2,6.4-0.4,7.9,2.4
					c1.6,2.8,0.9,6-1.9,8.4c-6,5.1-12.2,10.1-18.3,15.1c-2.1,1.7-4.1,3.7-6.3,5.2c-2.1,1.4-2.5,3.3-2.5,5.5
					C101.3,404.3,101.4,405.1,101.5,406.1z"/>
				<path d="M227.4,576.4c0.2,3,0.6,6,0.7,8.9c0.1,3.2,0.5,6.3,2,9.1c0.5,0.9,1.2,1.8,1.8,2.7c0.2-0.1,0.4-0.2,0.6-0.3
					c-0.3-1.4-0.6-2.7-0.9-4.1c-0.3-1.5-0.7-3-1-4.4c-1.2-5.2,0.7-9.3,4.2-12.9c0.6-0.6,1.7-1.1,2.6-1.1c5.1-0.1,10.1-0.2,15.2,0
					c7.2,0.2,9.2,2.3,9.8,9.4c0.4,4.7-0.4,9.1-3,13.1c-3.9,5.8-7.7,11.7-11.7,17.4c-0.8,1.2-2.2,2-3.5,2.8c-1.4,0.8-2.8,0.5-3.9-0.7
					c-6.1-6.4-12.5-12.5-15.8-21c-2.1-5.4-2.9-10.8,0-16.1c0.5-1,1.4-1.9,2-2.9C226.8,576.2,227.1,576.3,227.4,576.4z"/>
				<path d="M321.9,447.4c2.2,0,4.1,0,6,0c2.7,6.6,4.6,13.4,4.8,20.4c0.1,3-0.9,6-1.6,8.9c-0.5,1.8-1.9,2.8-3.9,2.9
					c-2.4,0.1-4.9,0.3-7.3-0.1c-1.3-0.2-2.9-1.2-3.7-2.4c-2-2.8-4.2-5.6-5.4-8.7c-5.5-14.8-11.6-29.4-15.1-44.9c-0.9-4,1.8-7.9,6-8
					c1.2,0,2.4,0.8,3.5,1.4c0.4,0.2,0.7,0.7,0.9,1.2c4,8.3,9.8,15.6,13.2,24.3C320,444,321,445.6,321.9,447.4z"/>
				<path d="M120.8,356c-11.4,5.4-22.6,10.8-33.9,16.1c-0.7,0.3-1.4,0.7-2.2,1.1c0.6,1.1,1.1,2.1,1.6,3c-0.2,0.2-0.4,0.4-0.5,0.5
					c-8.4,1.7-16.8,2.2-25.3,0.1c-3.2-0.8-5.3-2.5-5.9-5.7c-0.7-3.5,0.2-6.4,3.1-8.6c3.7-2.9,8-4.5,12.4-5.7
					c12.6-3.3,25.1-6.5,37.8-9.5c2.7-0.6,5.6-0.7,8.4-0.4c3.2,0.3,3.9,1.2,4.5,4.4c0.1,0.8,0.3,1.6,0.3,2.4
					C121,354.5,120.9,355.3,120.8,356z"/>
				<path d="M97.8,281.1c-11.1-0.1-22-1.3-32.9-2.8c-5.1-0.7-10.2-1.7-15.3-2.2c-4.7-0.5-7.8-2.5-9.1-7.1c-0.6-2-1.4-4-1.7-6.1
					c-0.6-4.2,1.5-6.7,5.7-7.5c3.3-0.6,6.7-0.4,9.9,0.2c10,1.7,20,3.4,29.8,5.6c5.7,1.3,11.2,3.6,16.7,5.5c2.5,0.9,4.9,1.9,7.3,2.9
					c1,0.4,1.9,1.2,2.7,1.9c1.8,1.6,2.3,3.6,1.4,5.8c-0.9,2.2-2.4,3.7-5,3.7C104.1,281.1,101,281.1,97.8,281.1z M86,268.1
					c-6.3-1.2-12.3-2.4-18.4-3.5c-3.3-0.6-6.6-1-9.9-1.6c-1-0.2-1.8-0.1-2.3,0.8c-1.2,2.1,0,4.9,2.3,5.5c3,0.7,5.9,1.3,8.9,1.8
					c5.8,0.9,11.6,1.6,17.6,1.1C84.9,270.8,85.5,269.4,86,268.1z"/>
				<path d="M165.7,203.2c0.6,0.8,1.1,1.5,1.7,2.4c-2.3,1.8-4.6,3.5-6.8,5.3c-19.6,15.6-32.6,35.6-39.1,59.8c-2,7.4-3,14.9-3.4,22.5
					c-1.3,21.6,3.3,41.9,12.7,61.3c5.4,11,12.4,20.9,20.8,29.8c13.4,14,29.3,24,47.6,30.1c7.9,2.6,16,4.4,24.3,5.3
					c0.6,0.1,1.2,0.2,2,0.4c-0.1,0.6-0.1,1-0.2,1.5c-0.1,0.4-0.2,0.7-0.4,1.5c-5.2-0.9-10.5-1.6-15.6-2.7
					c-20.4-4.6-38.5-13.9-54-27.9c-9.8-8.8-17.8-19.1-24.3-30.7c-8.3-15-13.6-31-15.4-48.1c-2.5-22.3,0.7-43.7,10.2-64
					c8.7-18.6,21.8-33.6,38.4-45.5C164.7,203.8,165.2,203.5,165.7,203.2z"/>
				<path d="M322.4,203.5c0.9-0.8,1.5-1.4,2.3-2.1c5.9,5.7,11.3,11.6,16.3,17.8c10.6,13.3,18.9,27.8,24.2,44
					c4.5,13.8,6.3,28,5.5,42.5c-0.9,17-5.5,33-12.9,48.1c-5.4,11.1-12.4,21.1-20.6,30.3c-9.6,10.7-20.6,19.8-33.2,26.8
					c-11.9,6.6-24.6,11-38.2,12.5c-1.2,0.1-2.4,0-3.7,0c0-0.9,0-1.7,0-2.4c0.4-0.2,0.6-0.5,0.9-0.5c21.4-1.6,39.8-10.6,56.3-23.7
					c13.5-10.7,24.4-23.8,32.8-38.8c8.3-15,13.7-30.9,15.4-48c1.8-19.1-1.1-37.4-8.4-55c-6.5-15.6-15.8-29.4-27.2-41.9
					C328.7,210,325.6,206.9,322.4,203.5z"/>
				<path d="M288.7,190.1c-0.8,0.2-1.5,0.6-2.2,0.6c-5.8,0.5-9.9,3.8-13.1,8.4c-3.7,5.3-5.9,11.3-7.4,17.5c-0.3,1.1-0.6,2.2-1.2,3.3
					c-0.1-3.7,0.5-7.2,1.1-10.8c0.5-3.6,0.9-7.2,1.5-10.8c0.6-3.7,1.5-7.3,2.4-11.4c-2.9-0.8-5.7-1.6-8.6-2.2
					c-9.9-2-19.9-2.1-29.9-0.9c-10.4,1.2-20.5,3.7-30.5,7c-0.7,0.2-1.4,0.4-2,0.6c-0.2,0-0.4,0-1.1-0.1c1.2-0.9,2-1.7,2.9-2.3
					c10.1-7,21.4-10,33.5-10.4c18.8-0.6,36.5,4.1,53.9,10.9C288.1,189.7,288.3,189.9,288.7,190.1z"/>
				<path d="M227.5,86.9c-3-1.8-5.4-4.4-7.1-7.3c12.1-9.7,32.1-11,46.2,0.3c-2.3,2.4-4.6,4.7-7,7.3C248.7,80.5,238,80.4,227.5,86.9z
					"/>
				<path d="M230.9,137.9c-0.9,3.1-1.8,6.2-2.7,9.3c-14.2-5.1-25.5-21.7-23.3-40.3c3.1-0.6,5.9,0.9,8.6,2c0.6,0.2,1.1,1.5,1.1,2.3
					C214.7,123.2,220.9,131.4,230.9,137.9z"/>
				<path d="M272.2,109.6c3.3-0.9,6.3-2.1,9.7-2.1c2.9,18.4-10.2,35.6-23.1,40.3c-1.5-3-2-6.3-2.7-9.6
					C267.1,131.8,272.4,122.3,272.2,109.6z"/>
				<path d="M227,558.2c0-1.8,0-3.3,0-5.2c1.2-0.1,2.3-0.4,3.5-0.4c9.5,0,19.1,0,28.6,0c0.6,0,1.2,0.1,1.9,0.2c0,1.5,0,2.7,0,4.4
					C249.9,561.1,238.7,560,227,558.2z"/>
				<path d="M260.8,566.3c0,0.9,0,1.5,0,2.1c-0.4,0.1-0.7,0.3-0.9,0.3c-0.3,0.1-0.6,0-0.9,0c-6.7,0.1-13.3,0.3-20,0.4
					c-2.6,0-5.2,0-7.8-0.2c-2.2-0.1-4-1.3-5.9-3c6.2,0.1,12.1,0.3,17.9,0.4C248.9,566.3,254.8,566.3,260.8,566.3z"/>
				<path d="M154,204.2c-1.8,2.2-3.6,3.7-6.2,4.5c-0.1-3.2,0.1-6.1,2.8-8.6C151.8,201.5,152.9,202.8,154,204.2z"/>
				<path d="M152,403.6c-0.4-0.3-0.7-0.4-0.9-0.7c-0.7-1-1.4-2-2.1-3.1c0.4-0.7,0.8-1.4,1.2-2s0.8-1.1,1.5-1.9
					c1.5,1.3,2.8,2.4,4.2,3.6C154.4,401.1,153.2,402.3,152,403.6z"/>
				<path d="M327.8,399.8c1.5-1.4,2.8-2.6,4.5-4c1.3,1.4,2.5,2.8,3.7,4.2C333.3,402.4,331.4,402.4,327.8,399.8z"/>
				<path d="M129,222.3c1.3-1.6,2.3-2.8,3.3-3.9c2.3,0.5,2.6,2.5,4,3.8c-1.2,1.1-2.3,2-3.6,3.1C131.5,224.3,130.4,223.4,129,222.3z"
					/>
				<path d="M110,310.6c2.2,2.9,2.3,5.3,0.2,8.1c-1.5-1.2-3-2.3-4.8-3.8C107,313.4,108.4,312.1,110,310.6z"/>
				<path d="M373.5,333.6c1.4,2,2.5,3.5,3.5,4.9c-2.9,1.8-4.8,1.8-7.7-0.2C370.6,336.8,371.9,335.4,373.5,333.6z"/>
				<path d="M352.6,385.2c-1-0.7-2-1.4-3-2.1c0.4-1,0.8-1.8,1.2-2.6c0.4-0.8,0.9-1.6,1.4-2.6c1.5,1.4,2.9,2.7,4.4,4.1
					C355.2,383.1,353.9,384.1,352.6,385.2z"/>
				<path d="M339.9,208.1c-1.4-1.5-2.7-2.8-4.2-4.4c1.5-1.1,2.7-1.9,3.8-2.7C343.6,203.6,343.6,203.6,339.9,208.1z"/>
				<path d="M310.9,418.9c-1.8-2.8-1.7-5.2,0-7.7c2.2,1,2.6,1.4,4.5,4.1c-0.4,0.4-0.8,0.8-1.3,1.2C313,417.2,312,418,310.9,418.9z"
					/>
				<path d="M374.4,289.5c1.6-1.8,2.8-3.2,4.3-5.1c0.8,1.6,1.6,2.9,2,4.3c0.6,2-0.8,3.4-2.8,2.7C376.8,291,375.8,290.3,374.4,289.5z
					"/>
				<path d="M366.9,236.7c2.9,1.7,2,4.4,1.8,7.1c-1.6-0.2-3.1-0.4-4.7-0.6C364.7,240.7,364,238,366.9,236.7z"/>
				<path d="M123.2,242.6c-1.1,1.4-2.2,2.9-3.6,4.8c-1-2.3-1.8-4-2.6-5.7C119.6,239.4,120.8,239.6,123.2,242.6z"/>
				<path d="M117.2,341c-3.1,2.2-4.7,2.1-7.6,0c1.2-1.4,2.3-2.7,3.7-4.4C114.7,338.2,115.8,339.5,117.2,341z"/>
				<path d="M375.5,309.6c2.2,1.4,3.9,2.5,6,3.9c-1.7,1.2-3,2.2-4.7,2.4c-1.7,0.2-2.6-0.5-2.4-2.2
					C374.6,312.4,375.1,311.1,375.5,309.6z"/>
				<path d="M111.4,286.5c-1.1,1.4-2,2.7-3.2,4.3c-1-1.6-1.8-2.8-2.7-4.2c0.8-1.4,1.6-2.7,2.6-4.5
					C109.4,283.8,110.4,285,111.4,286.5z"/>
				<path d="M122.6,364.7c-1.5-1.2-2.8-2.4-4.2-3.5c3.1-2.8,4.6-3.2,6.1-1.5C125.7,360.9,125.5,361.8,122.6,364.7z"/>
				<path d="M137.3,383.2c-1.1,1-2.1,1.9-3.3,3c-1.2-1-2.4-2-3.8-3.3c1.3-1.3,2.3-2.4,3.3-3.5C135.8,380,136.2,381.8,137.3,383.2z"
					/>
				<path d="M361.9,360.7c1.1-1.5,2-2.8,3.1-4.5c1.5,1.3,2.8,2.5,4.3,3.9c-1.2,1.1-2.2,2-3.4,3C364.6,362.3,363.4,361.5,361.9,360.7
					z"/>
				<path d="M378.8,262.9c-0.9,1.6-1.6,2.8-2.5,4.3c-1.8-1.1-2.9-2.5-4.1-4.3c1.1-1,2.2-1.9,3.5-3
					C376.8,260.9,377.7,261.8,378.8,262.9z"/>
				<path d="M177.5,415c-1.3,1.3-2.2,2.2-3.3,3.3c-1.6-1.1-3.1-2-4.9-3.3c1.9-1.2,3.3-2,4.8-3C175.2,413.1,176.2,413.9,177.5,415z"
					/>
				<path d="M355.6,225.6c-1.6-2-2.8-3.6-4.1-5.3c1.8-1.5,3.9-1.4,6.1-2C357.6,221,356.5,223,355.6,225.6z"/>
				<path d="M115.2,266.9c-1.5,0-2.6,0.1-3.7,0c-2-0.2-2.8-1.9-1.4-3.4c0.8-0.9,2.1-1.4,3.6-2.4
					C114.2,263.1,114.6,264.8,115.2,266.9z"/>
				<path class="st1" d="M341.5,177.3c-0.6-4.5,0.6-8.3,2.6-11.7c3-5.1,6.5-10,9.9-14.9c1.1-1.6,2.9-2.1,4.8-2.3
					c1.8-0.2,2.6,0.5,2.6,2.4c0.1,2.6-1.2,4.7-2.7,6.6c-3.5,4.4-7.1,8.8-10.6,13.2C346.2,172.8,344.5,175.3,341.5,177.3z"/>
				<path class="st1" d="M64.9,231.2c3.9-0.9,7.1,0.7,10.3,2.3c2.6,1.3,5.1,2.9,7.7,4.2s5.4,2.3,8.3,3.6c-0.1,1.5-0.3,3.2-0.4,5.2
					c-1.7-0.3-3.2-0.6-4.6-0.9c-6.4-1.5-12.8-3.2-18.7-6.1C63.4,237.5,62.9,235.8,64.9,231.2z"/>
				<path class="st2" d="M400.5,331c6.7-0.9,13.4-1.5,20.2-1.2c2.5,0.1,5,0.4,7.5,0.7c2,0.3,2.6,1.2,2.5,3.4c-0.1,2.1-0.6,2.7-2.6,3
					c-5.5,0.7-10.9-0.4-16.2-1.7c-3.9-1-7.7-2.3-11.6-3.4C400.4,331.4,400.5,331.2,400.5,331z"/>
				<path class="st1" d="M85.8,301.3c-9.4,1.4-18.5,3.5-27.9,1.7c-1.4-0.3-2.4-0.8-3-2.2c-0.9-2.5-0.3-3.5,2.3-3.9
					c6.5-1,13.1-0.6,19.7-0.1c1.4,0.1,2.8,0.4,4.2,0.4C83.7,297.2,85,298.6,85.8,301.3z"/>
				<path class="st2" d="M377.8,381.7c3.2,0.3,5.8,1.2,8.1,2.7c3.5,2.3,7.2,4.6,10.7,6.9c2,1.3,4.1,2.7,5.9,4.3
					c1.8,1.6,1.5,2.5-0.8,3.4c-1.8,0.7-3.6,0.8-5.2-0.3c-4.4-3-8.9-5.9-13.2-9.2C380.8,387.6,379.1,385.1,377.8,381.7z"/>
				<path class="st1" d="M123.8,192.4c-1,1.1-1.6,1.7-2.5,2.7c-4.1-3.2-8.3-6.1-12.2-9.4c-2.2-1.9-4.1-4.2-5.9-6.5
					c-1.6-2.2-1.4-3.3,0.1-4.5c2.1-1.6,4.4-1.6,6,0.1c1.2,1.3,2.4,2.7,3.6,4.1C116.5,183.4,120,187.8,123.8,192.4z"/>
				<path class="st1" d="M179.2,435.6c-0.7,2.7-1.3,5.5-2.1,8.2c-1.8,5.9-4.3,11.4-7.7,16.5c-1.4,2.1-2.3,2.4-3.9,1.6
					c-2-0.9-3-2.7-2.5-4.7c0.3-1.2,0.7-2.4,1.3-3.4c3.9-6.1,8.2-12,13.1-17.5c0.3-0.4,0.7-0.6,1.1-0.9
					C178.6,435.4,178.9,435.5,179.2,435.6z"/>
				<path class="st1" d="M86,268.1c-0.6,1.3-1.2,2.7-1.8,4.1c-6,0.5-11.8-0.2-17.6-1.1c-3-0.5-6-1.1-8.9-1.8
					c-2.4-0.5-3.5-3.3-2.3-5.5c0.5-0.9,1.3-1,2.3-0.8c3.3,0.6,6.6,1,9.9,1.6C73.7,265.7,79.7,266.9,86,268.1z"/>
			</g>
		</g>
	</g>
</g>
<g>
	<g>
		<g>
			<defs>
				<polygon id="SVGID_3_" points="57,576 562,139 417,8.4 -43,482 				"/>
			</defs>
			<clipPath id="SVGID_4_">
				<use xlink:href="#SVGID_3_"  style="overflow:visible;"/>
			</clipPath>
			<g class="st3">
				<g>
					<g>
						<g>
							<g>
								<defs>
									<rect id="SVGID_5_" x="-143.1" y="-82.5" width="780" height="780.9"/>
								</defs>
								<clipPath id="SVGID_6_">
									<use xlink:href="#SVGID_5_"  style="overflow:visible;"/>
								</clipPath>
								<path class="st4" d="M400.1,111.9c-0.3,0.5-0.5,1.1-0.8,1.6c-9.9,17.1-19.8,34.2-29.6,51.3c-14.5,25-28.9,50-43.4,75
									c-3.6,6.3-7.3,12.6-10.9,18.8c-0.1,0.3-0.2,0.6-0.4,1h2.1c40,0,80,0,119.9,0c0.9,0,1.8,0,2.6,0v79.6c-0.9,0-1.9,0-2.8,0
									c-38.7,0-77.5,0-116.2,0c-0.5,0-1.1,0-1.6,0c-0.2,0-0.4,0-0.8,0.1c0.2,0.5,0.4,0.9,0.6,1.2c1,1.8,2.1,3.6,3.1,5.4
									c7,12.1,14,24.2,21,36.3c6.8,11.7,13.6,23.4,20.3,35.1c8.8,15.2,17.5,30.4,26.3,45.6c3.9,6.8,7.8,13.5,11.7,20.3
									c0.3,0.5,0.7,1,0.7,1.6H310c0.1-0.5-0.2-0.8-0.4-1.2c-1.9-3.3-3.8-6.7-5.8-10c-11-19.2-22.1-38.4-33.1-57.6
									c-6.9-12-13.8-24-20.7-36c-0.2-0.4-0.5-0.7-0.8-1.2c-0.3,0.4-0.5,0.7-0.7,1c-3.2,5.6-6.5,11.2-9.7,16.9
									c-7.8,13.5-15.5,27-23.3,40.5c-8.9,15.5-17.8,31-26.7,46.5c-0.2,0.4-0.4,0.8-0.5,1.2H96.1c0.3-0.5,2.1-3.8,2.9-5.2
									c9.2-15.9,18.3-31.7,27.5-47.6c8.8-15.2,17.6-30.5,26.4-45.7c5.5-9.5,11-19,16.5-28.6c3.2-5.6,6.4-11.1,9.6-16.7
									c0.3-0.6,0.7-1.1,0.9-1.8c-0.7-0.2-1.4-0.1-2-0.1c-38.9,0-77.9,0-116.8,0c-1,0-2,0-3,0v-79.6c0.9,0,1.9,0,2.8,0
									c39.9,0,79.9,0,119.8,0c0.6,0,1.1,0,1.6,0c0.3,0,0.6,0.1,0.8-0.3c-0.1-0.2-0.2-0.4-0.3-0.7c-4.7-8.1-9.4-16.3-14.1-24.4
									c-6.1-10.6-12.3-21.1-18.4-31.7c-15.6-27-31.2-54-46.8-81c-1.8-3.2-3.7-6.4-5.5-9.6c8,0,91.4,0,91.7,0
									c0.1,0.2,39.2,67.9,58.2,100.8c0.2,0.3,0.3,0.6,0.5,0.9c0.1,0.1,0.1,0.2,0.2,0.3c0.1,0.1,0.1,0.2,0.2,0.3
									c0,0.1,0.1,0.1,0.1,0.1l0.1,0.1c0,0,0.1,0,0.3,0.1c19.6-34,39.5-68.4,59.1-102.5"/>
							</g>
						</g>
					</g>
				</g>
			</g>
		</g>
	</g>
</g>
<g>
	<g>
		<g>
			<defs>
				
					<rect id="SVGID_7_" x="-250" y="69.9" transform="matrix(0.7168 -0.6973 0.6973 0.7168 -86.8434 121.3719)" width="712" height="195.4"/>
			</defs>
			<clipPath id="SVGID_8_">
				<use xlink:href="#SVGID_7_"  style="overflow:visible;"/>
			</clipPath>
			<g class="st5">
				<g>
					<path d="M257.8,584.3c-0.2,9.5-0.4,18.8-0.5,28.4c-5.4,0.4-10.7,0.7-16,0c-0.1-0.4-0.2-0.7-0.2-1c-0.1-3.3-0.3-6.5-0.3-9.8
						c-0.1-5.1-0.2-10.2-0.2-15.3c0-1.6-0.6-2.5-1.9-3.2c-3.1-1.7-5.5-4.3-7.2-7.5c-4.6-9-2-19.4,6.5-25.1c0.5-0.4,1-0.7,1.4-1
						c0-3.6-0.1-7,0-10.4c0.3-8.3-2.7-16-4.4-23.9c-2.4-11.2-5.1-22.4-7.7-33.5c-0.1-0.4-0.2-0.8-0.3-1.2c-0.2-1.2-0.9-1.6-2.1-1.8
						c-6-1.1-12-2-17.8-3.5c-7-1.9-13.8-4.4-20.7-6.7c-0.3-0.1-0.6-0.2-1.2-0.4c-10.2,13.9-20.5,27.9-30.8,42
						c-9.9-5.7-19.6-11.2-29.5-16.9c7.2-16.1,14.4-32.1,21.6-48.2c-9.5-7.7-17.9-16.2-25.5-25.8c-15.6,6.8-31.1,13.6-46.9,20.5
						c-5.6-9.7-11.2-19.3-16.9-29.2c13.8-10,27.6-20.1,41.1-29.9c-2-6.5-4.2-12.6-5.9-18.9c-1.7-6.2-2.8-12.6-4.3-19.3
						c-16.9-1.9-34.1-3.6-51.3-5.4c-0.8-2.3-0.9-31.2-0.2-33.8c8.6-1,17.3-1.9,26-2.9c8.6-0.9,17.2-1.8,25.7-2.8
						c2.1-8.9,4.1-17.5,6.2-26.5c-15-11-30.3-22.3-45.7-33.6c5.7-9.8,11.3-19.4,17.1-29.2c16.4,7.2,32.7,14.4,49,21.6
						c5.8-7,11.5-13.9,17.4-21c-8-17.8-16-35.8-24.2-54.2c9.8-5.6,19.5-11.2,29.4-16.8c1.3,1.7,2.6,3.2,3.8,4.8
						c9.5,12.5,19,25,28.5,37.5c0.8,1,1.4,2.1,2,3.3c5.9,11.8,11.8,23.7,17.8,35.5c0.8,1.5,1.6,3.1,2.4,4.7c-1.5,0.9-2.7,1.7-4,2.5
						c-7.2,4.4-13.9,9.7-19.8,15.7c-16.5,17-26.9,37.2-30.3,60.8c-0.8,5.3-1.4,10.6-1.3,15.9c0.6,27.1,9.3,51.2,27.4,71.6
						c9.5,10.7,20.5,19.3,33.3,25.6c6,3,12.3,5.3,18.7,7.2c1.9,0.6,3.3,0.1,4.5-1.5c3.5-4.6,7.2-9.1,10.9-13.6
						c0.9-1.1,1.4-2.3,1.3-3.7c-0.2-5.3-0.3-10.5-0.5-15.8c-0.1-3-0.3-6-0.4-9.1c-0.1-4.3-0.1-8.6-0.2-12.9
						c-0.2-5.6-0.5-11.1-0.7-16.7c-0.1-2.2-0.1-4.5-0.2-6.7c-0.2-6.3-0.3-12.6-0.5-18.9s-0.5-12.6-0.7-18.8
						c-0.1-2.4-0.1-4.8-0.2-7.2c-0.2-6.9-0.3-13.9-0.5-20.8c-0.2-7.4-0.7-14.8-0.9-22.2c-0.1-3.3,0-6.7,0-10
						c-0.1-9.6-2-18.7-8.3-26.3c-3.4-4.1-7.7-6.9-12.6-8.8c-0.7-0.3-1.5-0.5-2.3-0.8c-3.1-1.1-4.4-3-3.9-6.2
						c0.5-3.5,1.2-7.1,1.9-10.6c0-0.2,0.1-0.3,0.1-0.5c0.8-6.2,4.4-10.5,9.6-13.7c8.6-5.3,17.9-8.6,28-9.5c11-1,21.6,0.3,31.8,4.8
						c3.6,1.6,7,3.5,10.3,5.6c2.9,1.8,4.7,4.4,5.4,7.8c0.9,4.4,1.8,8.7,2.6,13.1c0.5,2.5,0,4.8-2.4,6.3c-1.1,0.7-2,1.6-3.2,2.1
						c-8.6,4-13.7,11-16.4,19.8c-1.4,4.4-1.9,9-2,13.7c-0.1,7.5-0.3,15-0.5,22.5c-0.2,8.3-0.3,16.6-0.5,24.9
						c-0.2,9.5-0.3,19-0.5,28.4c-0.1,8-0.3,16.1-0.5,24.1c-0.2,9.1-0.3,18.2-0.5,27.2c-0.2,8.1-0.3,16.3-0.5,24.4
						c-0.1,2.9-0.3,5.9-0.2,8.8c0,1,0.2,2.2,0.8,2.9c4.4,5.5,9,11,13.4,16.4c26.6-6.7,61.5-32.8,72.7-75.2
						c6.2-23.6,4.9-46.7-4.4-69.3c-9.3-22.6-24.7-39.9-45.6-52.7c1-2.3,2-4.4,3-6.6c4.4-9.3,8.9-18.5,13.3-27.8
						c1.2-2.4,2.4-4.9,3.4-7.4c1.5-3.3,3.9-6,6.1-8.8c9.2-11.8,18.4-23.6,27.6-35.4c0.4-0.5,0.8-1,1.4-1.6
						c9.7,5.6,19.3,11.2,29.1,16.9c-8.1,18.3-16.2,36.5-24.1,54.4c5.9,7,11.6,13.9,17.4,20.8c16.1-7.2,32.3-14.4,48.9-21.7
						c5.7,9.7,11.3,19.5,17,29.5c-15.2,11.1-30.3,22.1-45.3,33c2.2,9,4.3,17.8,6.5,27c8.1,1.1,16.7,1.8,25.3,2.8
						c8.5,1,17,1.8,25.7,2.7c0,11.3,0,22.4,0,33.7c-16.8,1.8-33.7,3.6-50.6,5.4c-1.4,6.6-2.6,13.1-4.3,19.6
						c-1.7,6.4-3.9,12.6-5.9,19.2c13.2,9.7,26.7,19.5,40.2,29.4c-5.6,9.7-11.2,19.3-16.9,29.1c-15.2-6.5-30.3-13.3-45.7-20
						c-7.9,9.6-16.8,18.4-26.2,26.6c7.1,15.8,14,31.4,21,47.1c-9.8,5.7-19.5,11.3-29.5,17c-10-13.9-20-27.7-30.1-41.6
						c-11.9,4.9-24,8.3-36.6,10.3c-1.5,6.5-3,12.9-4.4,19.2c-2.5,11-5.2,22-7.5,33.1c-0.6,3-0.6,6.2-0.7,9.2c-0.1,2.6,0,5.3,0,7.9
						c0,1.2,0.4,1.8,1.3,2.6c2,1.7,4.1,3.3,5.7,5.4c5.5,7.2,4.6,20.4-4.7,26.5C259.6,583,258.8,583.6,257.8,584.3z"/>
					<path d="M278.1,169.1c-15.1-8.5-31.2-9.1-48-6.7c-0.6-1.8-1.2-3.3-1.7-4.9c-2.2-8.4-1.8-16.9,0.4-25.2
						c3.3-12.3,9-23.5,16.5-33.7c5.2-7,10.7-13.7,15.9-20.6c4.6-6.1,8.6-12.5,10.8-19.8c0.9-3,1.3-6.2,1.9-9.3
						c0.1-0.6,0.2-1.3,0.3-2c0.2,0,0.3,0,0.5-0.1c0.3,0.6,0.7,1.2,0.9,1.8c2.3,6.7,4,13.6,4.1,20.8c0.1,3.4,0.4,6.8,0.8,10.2
						c0.3,2.8-0.2,5.4-1.2,7.9c-5.9,14.7-12.9,28.8-21.4,42.1c-1.4,2.3-2.7,4.7-3.8,7.2c-1.4,3-1.6,6.2-0.8,9.3
						c0.7,2.9,3.8,4.4,6.6,3.4c2.6-1,4.3-2.9,5.3-5.5c1-2.8,1.1-5.8,0.7-8.7c-0.2-1.9-0.5-3.8-0.8-5.7c-0.4-1.9,0-3.7,0.9-5.3
						c1.1-2,2.2-3.9,3.5-5.7c2.2-3.1,4.4-6.2,5.9-9.8c0.2-0.5,0.8-0.8,1.2-1.2c0.4,0.4,1,0.8,1.2,1.3c0.8,2.4,1.5,4.9,2.2,7.3
						c1.4,4.8,3,9.6,4.1,14.4c2.5,11.1,0.9,22-2.7,32.6c-0.5,1.5-1.4,2.8-2.2,4.2C279.1,168.1,278.7,168.4,278.1,169.1z"/>
					<path d="M244.9,24.3c-0.2,1-0.2,1.6-0.5,2.1c-1.1,2.1-1.1,4.2-1,6.5c0.6,7.6,2.9,14.7,6,21.5c2.1,4.6,4.3,9,6.7,13.5
						c1,1.9,1.2,3.4-0.1,5.2c-4.6,6.3-9,12.7-13.5,19.1c-5.3,7.6-10.6,15.2-14.5,23.6s-6.9,17-7.6,26.2c-0.4,5.5-0.2,11,1,16.4
						c0.2,1.2,0.8,2.2,1.2,3.4c0.3,0.9,0.7,1.7,1.1,2.6c-4.1,2.3-8.1,4.4-12.1,6.7c-0.3-0.5-0.6-0.8-0.8-1.1
						c-2.2-5.5-4.4-10.9-6.5-16.4c-1.5-3.8-3.2-7.5-3.7-11.6c-0.6-5.2-0.5-10.3,1.1-15.4c4-13.2,10.8-24.8,20.5-34.6
						c1.7-1.8,3.3-3.6,4.9-5.5c1.6-1.8,2.4-4,2.7-6.3s0.5-4.6,0.5-6.9c0-5.3-0.3-10.5-0.2-15.8c0-3.3,0.4-6.7,0.8-10
						c0.3-2.5,1.1-4.8,2.4-6.9c2.4-3.9,4.7-7.9,7.2-11.8C241.6,27.1,242.8,25.5,244.9,24.3z"/>
					<path d="M209.7,47.5c4.4,5.5,9.6,9.7,12.1,16c1.5,3.8,2.5,7.7,2.6,11.8c0,1.5,0.4,3,0.2,4.5c-0.1,1-0.5,2.3-1.2,3
						c-5.8,5.7-10.6,12.3-15.2,19c-0.1,0.2-0.3,0.3-0.7,0.7c-0.3-0.6-0.7-1.1-0.9-1.6c-2-5.3-2.1-10.7-0.8-16.2
						c0.7-2.9,1.6-5.8,2.4-8.7c2.5-8.5,2.9-17,1.5-25.7c-0.1-0.5-0.2-0.9-0.2-1.4C209.6,48.5,209.6,48.3,209.7,47.5z"/>
				</g>
			</g>
		</g>
	</g>
</g>
</svg>
