<?xml version="1.0" encoding="utf-8"?>
<!-- Generator: Adobe Illustrator 23.0.1, SVG Export Plug-In . SVG Version: 6.00 Build 0)  -->
<svg version="1.1" id="Layer_1" xmlns="http://www.w3.org/2000/svg" xmlns:xlink="http://www.w3.org/1999/xlink" x="0px" y="0px"
	 viewBox="0 0 100 100" style="enable-background:new 0 0 100 100;" xml:space="preserve">
<style type="text/css">
	.st0{fill:#2C07E2;}
	.st1{clip-path:url(#SVGID_2_);}
	.st2{fill:#FFFFFF;}
	.st3{fill:none;stroke:#000000;stroke-width:0.2936;}
	.st4{fill:none;stroke:#000000;stroke-width:2.936251e-03;}
</style>
<g>
	
		<rect x="69.02" y="-25.4" transform="matrix(0.7071 -0.7071 0.7071 0.7071 1.5286 62.1408)" class="st0" width="13.51" height="109.25"/>
</g>
<g>
	<g>
		<defs>
			<rect id="SVGID_1_" x="39" y="-9.17" width="68.83" height="97.34"/>
		</defs>
		<clipPath id="SVGID_2_">
			<use xlink:href="#SVGID_1_"  style="overflow:visible;"/>
		</clipPath>
		<g class="st1">
			<path d="M85.04,13.63c0.39-0.15,0.9-0.39,1.24-0.03c0.47,0.56,0.47,1.4,0.08,1.99c-0.63,1-1.38,1.9-2.04,2.87
				c-0.36,0.56-0.86,1.01-1.35,1.46c-0.21-0.13-0.43-0.23-0.62-0.4c-0.13-0.52,0.04-1.04,0.22-1.52c0.21-0.43,0.49-0.84,0.68-1.29
				C83.74,15.61,84.44,14.65,85.04,13.63"/>
			<path d="M63.75,13.85c0.19-0.28,0.57-0.22,0.84-0.13c0.46,0.33,0.69,0.87,1,1.33c0.39,0.57,0.65,1.22,1.03,1.8
				c0.31,0.46,0.5,0.96,0.76,1.44c0.47,0.77,0.43,1.24-0.36,1.67c-0.49-0.68-1.03-1.31-1.55-1.96c-0.27-0.33-0.48-0.7-0.8-1.01
				c-0.16,0.02-0.33,0.07-0.49,0.12C63.99,16.2,63.04,14.73,63.75,13.85"/>
			<path class="st2" d="M84.97,15.24c0.13-0.23,0.55-0.3,0.65-0.2c0.11,0.12-0.02,0.55-0.22,0.75c-0.59,0.55-0.91,1.31-1.55,1.83
				C83.79,16.69,84.5,15.96,84.97,15.24"/>
			<path d="M61.49,15.79c0.31-0.21,0.69,0,0.92,0.23c0.42,0.48,0.75,1.03,1.2,1.5c0.96,0.9,1.6,2.06,2.45,3.06
				c-0.22,0.25-0.45,0.49-0.68,0.73c-0.68-0.46-1.4-0.88-2.01-1.43c-0.56-0.41-1.02-0.95-1.57-1.37c-0.46-0.39-0.77-0.9-1.01-1.44
				C60.57,16.53,61.06,16.05,61.49,15.79"/>
			<path d="M87.89,15.84c1.35-0.49,1.58,0.42,1.14,1.49c-0.22,0.41-0.54,0.77-0.9,1.07c-1.04,0.83-2.04,1.71-3.03,2.62
				c-0.32,0.31-0.74,0.29-1.11,0.16c-0.04-0.3-0.08-0.64,0.16-0.88c0.77-0.87,1.54-1.75,2.23-2.67c-0.11-0.2-0.22-0.38-0.33-0.56
				C86.7,16.69,87.27,16.23,87.89,15.84"/>
			<path class="st0" d="M62.38,17.3c0.21-0.06,0.32,0.18,0.45,0.29c0.39,0.47,0.81,0.91,1.13,1.44c-0.05,0.05-0.13,0.14-0.18,0.19
				c-0.62-0.49-1.47-0.97-1.75-1.63C61.98,17.48,62.21,17.31,62.38,17.3"/>
			<path d="M79.12,18.83c-1.4-0.12-2.01,1.54-2.24,2.7c-0.01,0-0.05,0.01-0.07,0.02c0.16-1.02,0.25-2.05,0.53-3.04
				c-2.17-0.72-4.55-0.29-6.65,0.45C73.01,16.99,76.57,17.79,79.12,18.83"/>
			<path d="M58.84,19.14c0.06-0.38,0.39-0.75,0.68-0.8c0.33-0.05,0.75,0.29,1.04,0.56c0.69,0.58,1.48,1.02,2.12,1.64
				c0.59,0.54,1.31,0.95,1.76,1.63c0.21,0.29,0.04,0.66-0.16,0.92c-0.18,0-0.35-0.04-0.5-0.13c-0.89-0.6-1.84-1.11-2.78-1.65
				c-0.22-0.14-0.36,0.18-0.55,0.26c-0.46-0.34-0.76-0.84-1.14-1.27C59.01,19.99,58.82,19.58,58.84,19.14"/>
			<path d="M87.78,19.39c0.93-0.43,1.85-1.21,2.94-0.94c0.46,0,0.55,0.56,0.52,0.91c0.05,0.4-0.29,0.65-0.54,0.9
				c-0.32,0.36-0.79,0.49-1.2,0.7c-0.41,0.2-0.73,0.53-1.14,0.73c-0.86,0.45-1.67,1.02-2.59,1.31c-0.28,0.13-0.53-0.18-0.6-0.42
				c-0.13-0.3,0.2-0.55,0.41-0.73c0.87-0.6,1.65-1.28,2.39-2.03C87.9,19.68,87.83,19.54,87.78,19.39"/>
			<path d="M74.03,19.03c-0.26,0-0.53,0-0.79,0c-0.32-0.01-0.62,0.11-0.91,0.22c0.34,2.36,0.8,4.72,0.88,7.11
				c-0.57-2.31-0.6-4.78-1.59-6.97c-0.27,0.08-0.6,0.17-0.74,0.45c1.62,6.51,2.69,13.16,3,19.86c0.18,3.88,0.05,7.76-0.02,11.64
				l2.18,0.01c-0.1-3.72-0.13-7.43-0.06-11.15c0.14-6.84,0.57-14.24,2.84-20.37c-0.09-0.14-0.18-0.27-0.28-0.39
				c-2.56,4.22-2.56,9.44-2.85,14.21c-0.15,1.67-0.22,3.33-0.39,5c0-3.35,0.14-6.69,0.4-10.02c0.2-3.2,0.55-6.39,0.69-9.59
				C75.6,19.04,74.82,19.03,74.03,19.03"/>
			<path d="M66.18,20.5c0.04-0.27,0-0.6,0.27-0.77c0.09,0.12,0.19,0.22,0.27,0.35C66.58,20.27,66.38,20.4,66.18,20.5"/>
			<path d="M83.35,20.03c0.11-0.09,0.22-0.18,0.34-0.25c0.09,0.08,0.19,0.16,0.27,0.26c-0.08,0.13-0.18,0.25-0.26,0.38
				C83.59,20.29,83.47,20.18,83.35,20.03"/>
			<path d="M57.03,22.65c-0.11-0.79,0.74-1.55,1.5-1.26c0.62,0.27,1.21,0.59,1.77,0.95c1.04,0.59,2.17,1.06,3.12,1.81
				c0.26,0.18,0.12,0.53,0.16,0.79c-0.56,0.22-1.16,0.05-1.74-0.03c-0.67-0.08-1.34-0.22-1.96-0.49c-0.69-0.32-1.48-0.39-2.1-0.84
				C57.48,23.32,57.04,23.1,57.03,22.65"/>
			<path d="M84.75,21.52c0.19-0.06,0.36-0.13,0.56-0.13c-0.03,0.2-0.11,0.4-0.19,0.6C85,21.84,84.88,21.68,84.75,21.52"/>
			<path d="M64.72,21.44c0.14-0.22,0.27,0.2,0.39,0.27c-0.09,0.09-0.2,0.18-0.31,0.26c-0.12-0.08-0.22-0.16-0.32-0.26
				C64.55,21.65,64.67,21.51,64.72,21.44"/>
			<path d="M89.62,21.77c0.53-0.11,1.07-0.15,1.6-0.27c1.22-0.12,1.77,0.17,1.41,1.41c-0.76,0.89-1.99,1.11-3.09,1.37
				c-0.95,0.32-1.92,0.55-2.92,0.68c-0.52,0.07-0.59-0.67-0.39-1.02c1.16-0.43,2.28-1.02,3.41-1.51
				C89.62,22.22,89.59,21.99,89.62,21.77"/>
			<path class="st2" d="M58.7,22.52c0.69-0.06,1.48,0.76,2.31,0.92c-0.01,0.16-0.02,0.33-0.04,0.49c-0.8-0.18-1.69-0.38-2.32-0.77
				C58.48,23.05,58.52,22.54,58.7,22.52"/>
			<path d="M85.92,23.62c0.04-0.21,0.01-0.47,0.23-0.57c0.23,0.13,0.2,0.39,0.18,0.61C86.23,23.66,86.03,23.64,85.92,23.62"/>
			<path d="M63.38,23.47c0.19-0.2,0.41-0.12,0.55,0.08c-0.09,0.14-0.2,0.27-0.32,0.41C63.53,23.8,63.45,23.64,63.38,23.47"/>
			<path d="M59.04,25.02c0.8,0.11,1.57,0.29,2.31,0.59c0.5,0.2,1.09,0.27,1.5,0.66c0.29,0.27,0,0.87-0.39,0.81
				c-1.63,0.06-3.25-0.15-4.84-0.41c-0.35-0.07-0.81-0.01-1.04-0.35C55.33,24.02,57.9,24.84,59.04,25.02"/>
			<path d="M90.67,24.74c0.61-0.03,1.21,0.09,1.81,0.15c0.95,0.01,1.25,0.41,1.13,1.34c-0.33,0.4-0.89,0.5-1.36,0.64
				c-1.26,0.08-2.51,0.07-3.77,0.19c-0.55,0.01-1.11,0.06-1.68-0.01c-0.22-0.25-0.27-0.62-0.09-0.9c0.59-0.33,1.28-0.27,1.9-0.45
				c0.63-0.18,1.27-0.3,1.9-0.47C90.58,25.08,90.63,24.9,90.67,24.74"/>
			<path d="M86.66,25.44c0.09-0.09,0.2-0.19,0.32-0.27c0.08,0.08,0.16,0.18,0.23,0.27c-0.07,0.13-0.14,0.26-0.21,0.38
				C86.88,25.7,86.77,25.57,86.66,25.44"/>
			<path class="st2" d="M57.85,25.45c0.75-0.01,1.78,0.42,2.7,0.41c-0.06,0.13-0.12,0.26-0.16,0.4c-0.86,0.06-1.82-0.13-2.53-0.29
				C57.71,25.94,57.71,25.46,57.85,25.45"/>
			<path d="M62.71,25.6c0-0.2,0.23-0.22,0.36-0.3c0.02,0.12,0.09,0.36,0.13,0.49C63.02,25.74,62.67,25.88,62.71,25.6"/>
			<path d="M62.34,27.59c0.07-0.13,0.15-0.26,0.22-0.38c0.11,0.12,0.19,0.23,0.28,0.36c-0.09,0.13-0.18,0.25-0.27,0.36
				C62.5,27.82,62.41,27.71,62.34,27.59"/>
			<path d="M86.87,27.84c0.12-0.14,0.23-0.28,0.36-0.41c0.08,0.19,0.32,0.43,0.07,0.61C87.13,28.05,87,27.93,86.87,27.84"/>
			<path d="M90.79,27.59c0.95,0.16,2.84,0.04,2.78,1.37c-0.27,0.38-0.64,0.7-1.11,0.8c-0.84,0.19-1.69-0.08-2.55-0.03
				c-1.03,0.03-2.04-0.16-3.03-0.45c0.05-0.27-0.12-0.67,0.18-0.8c0.54-0.25,1.14-0.22,1.71-0.28c0.63-0.05,1.27-0.2,1.92-0.2
				C90.72,27.86,90.76,27.73,90.79,27.59"/>
			<path d="M56.18,28.29c0.1-0.31,0.47-0.63,0.88-0.62c1.24,0.09,2.49,0.2,3.73,0.29c0.67,0.07,1.31,0.28,1.98,0.39v0.99
				c-0.74,0.26-1.52,0.28-2.29,0.39c-1.1,0.15-2.21,0.21-3.32,0.16c-0.42,0.05-0.8-0.29-0.96-0.6
				C56.07,29.03,56.09,28.58,56.18,28.29"/>
			<path class="st2" d="M57.77,28.58c0.66-0.16,1.62-0.07,2.43,0c0.19,0,0.23,0.21,0.34,0.34c-0.89,0.13-1.91,0.36-2.7,0.12
				C57.7,28.99,57.64,28.61,57.77,28.58"/>
			<path d="M86.85,30.15c0.02-0.15,0.05-0.29,0.09-0.45c0.18,0.13,0.36,0.22,0.53,0.35C87.28,30.11,87,30.42,86.85,30.15"/>
			<path d="M62.33,30.16c0.14-0.12,0.28-0.25,0.41-0.36c0.18,0.22,0.19,0.47,0.01,0.7C62.61,30.38,62.47,30.28,62.33,30.16"/>
			<path d="M86.66,30.8c0.48-0.11,0.96-0.2,1.45-0.14c0.77,0.09,1.56,0.04,2.33,0.13c0.65,0.04,1.28,0.18,1.92,0.2
				c1.29,0.11,1.68,0.96,0.75,1.92c-0.23,0.13-0.48,0.25-0.76,0.27c-0.55,0.02-1.04-0.25-1.57-0.36c-0.68-0.15-1.36-0.31-2.05-0.43
				c-0.74-0.14-1.41-0.49-2.06-0.87C86.67,31.27,86.67,31.04,86.66,30.8"/>
			<path d="M58.84,30.97c1.27-0.08,2.56-0.25,3.84-0.18c0.5,0.04,0.46,0.66,0.47,1.02c-1.01,0.29-2.72,0.53-3.78,0.65
				c-0.3,0.01,0.2,0.27-0.03,0.43c-0.26,0.18-0.57,0.12-0.86,0.09c-0.59-0.11-1.23-0.13-1.7-0.54c-0.25-0.29-0.35-0.87-0.14-1.08
				C57.1,30.92,58.07,30.91,58.84,30.97"/>
			<path class="st2" d="M89.14,31.65c0.9-0.12,1.97-0.18,2.72-0.04c0.15,0.03,0.15,0.5,0,0.53C91.08,32.28,90,31.95,89.14,31.65"/>
			<path d="M86.38,32.32c0.13-0.13,0.25-0.27,0.38-0.41c0.11,0.14,0.21,0.28,0.32,0.42C86.85,32.49,86.6,32.48,86.38,32.32"/>
			<path d="M62.71,32.56c0.12-0.13,0.22-0.26,0.34-0.39c0.11,0.13,0.22,0.26,0.33,0.4C63.16,32.73,62.93,32.73,62.71,32.56"/>
			<path d="M85.89,33.33c0.14-0.28,0.39-0.6,0.74-0.52c1.08,0.15,2.08,0.63,3.12,0.92c0.26,0.11,0.43-0.19,0.63-0.29
				c0.58,0.54,1.29,0.9,1.9,1.4c0.19,0.15,0.35,0.35,0.36,0.6c-0.15,0.61-0.84,1.07-1.47,0.87c-1.1-0.43-2.11-1.1-3.24-1.5
				c-0.34-0.13-0.59-0.41-0.89-0.61C86.65,33.92,86.19,33.73,85.89,33.33"/>
			<path d="M62.31,33.19c0.41-0.09,0.86-0.2,1.24-0.01c0.19,0.2,0.15,0.49,0.18,0.75c-0.22,0.07-0.45,0.14-0.66,0.26
				c-0.88,0.47-1.78,0.92-2.7,1.29c0.07,0.11,0.14,0.21,0.21,0.32c-0.89,0.16-1.85,0.25-2.7-0.12c-0.86-1.21,1.03-1.65,1.92-1.84
				C60.64,33.62,61.49,33.41,62.31,33.19"/>
			<path d="M85.98,33.96c0.13,0.09,0.26,0.21,0.38,0.33c-0.09,0.09-0.19,0.18-0.29,0.26c-0.12-0.07-0.23-0.14-0.34-0.21
				C85.79,34.24,85.92,34.05,85.98,33.96"/>
			<path d="M63.49,34.37c0.16-0.06,0.36-0.33,0.53-0.13c0.23,0.14-0.04,0.32-0.13,0.46C63.75,34.59,63.62,34.48,63.49,34.37"/>
			<path d="M85.25,34.76c0.27-0.07,0.57-0.09,0.84,0.04c1.07,0.55,2.1,1.16,3.11,1.82c0.52,0.35,1.08,0.63,1.54,1.04
				c0.2,0.18,0.26,0.49,0.13,0.72c-0.21,0.4-0.58,0.83-1.08,0.79c-0.8-0.14-1.5-0.61-2.11-1.14c-0.91-0.93-2.19-1.57-2.74-2.82
				C85,35.04,85.05,34.79,85.25,34.76"/>
			<path d="M62.34,35.7c0.54-0.29,1.07-0.66,1.67-0.81c0.49-0.16,0.88,0.6,0.46,0.92c-0.79,0.76-1.71,1.38-2.52,2.11
				c-0.02,0.19-0.01,0.38-0.01,0.58c-0.67,0.18-1.34,0.45-2.04,0.45c-0.66,0.05-1.11-0.95-0.58-1.36
				C60.28,36.87,61.38,36.39,62.34,35.7"/>
			<path d="M84.58,36.38c0.09-0.15,0.14-0.32,0.23-0.46c0.12,0.12,0.25,0.25,0.38,0.36c-0.12,0.09-0.23,0.19-0.35,0.28
				C84.78,36.52,84.66,36.42,84.58,36.38"/>
			<path d="M64.84,36.12c0.14-0.21,0.26,0.2,0.38,0.27c-0.08,0.09-0.19,0.19-0.28,0.27c-0.12-0.09-0.22-0.19-0.33-0.29
				C64.67,36.31,64.78,36.18,64.84,36.12"/>
			<path class="st0" d="M87.17,36.27c0.28,0.03,0.56,0.12,0.77,0.3c0.49,0.4,1.34,0.73,1.56,1.08c0.07,0.12-0.43,0.32-0.65,0.13
				C88.23,37.36,87.47,37.01,87.17,36.27"/>
			<path d="M65.35,36.8c0.2-0.06,0.42-0.03,0.63-0.03c0.06,0.34,0.2,0.76-0.11,1.03c-0.66,0.76-1.37,1.47-2.05,2.21
				c0.05,0.18,0.12,0.35,0.12,0.54c-0.68,0.5-1.5,1.07-2.38,0.87c-0.49-0.08-0.75-0.59-0.7-1.04c0.2-0.4,0.62-0.62,0.96-0.89
				C62.88,38.45,64.1,37.6,65.35,36.8"/>
			<path d="M83.73,36.75c0.25,0.04,0.53-0.01,0.74,0.14c0.86,0.57,1.58,1.31,2.42,1.91c0.19-0.02,0.36-0.11,0.53-0.16
				c0.47,0.87,1.48,1.84,1.37,2.63c-0.05,0.39-0.88,0.7-1.4,0.47c-0.54-0.25-0.86-0.8-1.29-1.2c-0.75-0.7-1.33-1.56-2.05-2.3
				c-0.26-0.28-0.57-0.61-0.55-1.02C83.55,37.06,83.65,36.9,83.73,36.75"/>
			<path d="M66.3,37.9c0.08-0.11,0.15-0.22,0.22-0.33c0.13,0.11,0.26,0.21,0.39,0.33c-0.12,0.12-0.25,0.23-0.38,0.35
				C66.46,38.14,66.38,38.02,66.3,37.9"/>
			<path d="M82.63,37.92c0.12-0.13,0.23-0.25,0.36-0.36c0.12,0.12,0.25,0.25,0.36,0.36C83.11,38.14,82.86,38.12,82.63,37.92"/>
			<path d="M66.86,38.55c0.25-0.22,0.56-0.47,0.92-0.34c0.14,0.14,0.25,0.32,0.3,0.52c-0.28,0.58-0.76,1.02-1.09,1.57
				c-0.25,0.42-0.56,0.8-0.82,1.21c-0.14,0.23,0.09,0.47,0.18,0.69c-0.53,0.32-1.02,0.69-1.61,0.9c-0.5,0.19-1.2,0.22-1.54-0.02
				c-0.17-0.12-0.05-0.52,0.01-0.77c0.49-0.82,1.26-1.42,1.89-2.1C65.64,39.59,66.29,39.1,66.86,38.55"/>
			<path d="M81.77,38.32c0.16-0.2,0.45-0.12,0.67-0.14c0.56,0.54,1.02,1.19,1.54,1.78c0.2,0.25,0.38,0.53,0.67,0.67
				c0.16,0.02,0.34,0.02,0.52,0.04c0.49,0.86,1.01,2.12,0.55,2.87c-0.22,0.36-1.04,0.27-1.42-0.14c-1.09-1.29-1.71-2.89-2.62-4.28
				C81.59,38.86,81.55,38.51,81.77,38.32"/>
			<path d="M68.17,39.31c0.13-0.08,0.27-0.18,0.41-0.25c0.09,0.08,0.19,0.15,0.28,0.23c-0.09,0.11-0.19,0.19-0.29,0.28
				C68.43,39.48,68.3,39.4,68.17,39.31"/>
			<path d="M81.04,39.64c-0.15-0.23-0.13-0.48,0.02-0.7c0.13,0.12,0.26,0.25,0.39,0.38C81.32,39.41,81.18,39.53,81.04,39.64"/>
			<path d="M69.43,39.36c0.29-0.04,0.81,0.02,0.75,0.43c-0.02,0.53-0.28,1.01-0.46,1.5c-0.38,0.77-0.43,1.68-0.84,2.44
				c-0.28,0.5-0.58,1.09-1.16,1.28c-0.79,0.33-1.74-0.53-1.47-1.34c0.32-0.95,1.15-1.6,1.63-2.46
				C68.38,40.59,68.71,39.77,69.43,39.36"/>
			<path d="M79.67,40c-0.13-0.48,0.68-0.93,0.93-0.42c0.2,0.32,0.32,0.68,0.55,0.99c0.39,0.52,0.56,1.15,0.9,1.71
				c0.18-0.01,0.36-0.02,0.55-0.02c0.32,0.88,0.65,2.04,0.22,2.78c-0.13,0.23-0.59,0.13-0.88,0.15c-0.28-0.01-0.43-0.28-0.59-0.48
				c-0.38-0.55-0.53-1.2-0.76-1.82C80.24,41.95,79.88,40.99,79.67,40"/>
			<path d="M70.92,40.04c0.77,0.14,1.51,0.45,2.3,0.43c0.11,1.17,0.04,2.36,0.06,3.53l-0.03,1.21c-0.52,0-1.11-0.05-1.6-0.21
				c-0.14-0.03-0.25-0.14-0.31-0.26c-0.18-0.45-0.19-0.93-0.4-1.35c-0.16-0.34-0.55-0.43-0.82-0.65c-0.01-0.4,0.15-0.77,0.25-1.16
				C70.53,41.07,70.66,40.52,70.92,40.04"/>
			<path d="M76.53,40.63c0.84-0.04,1.57-0.56,2.4-0.56c0.28,0.53,0.36,1.11,0.58,1.67c0.12,0.31,0.26,0.61,0.28,0.95
				c-0.25,0.19-0.54,0.31-0.8,0.48c-0.43,0.5-0.3,1.33-0.76,1.82c-0.54,0.14-1.1,0.2-1.67,0.23C76.48,43.7,76.53,42.16,76.53,40.63"
				/>
			<path class="st2" d="M68.55,41.63c0.12-0.2,0.28-0.36,0.47-0.5c-0.13,0.88-0.59,1.88-1.01,2.44c-0.09,0.12-0.52-0.15-0.46-0.38
				C67.71,42.59,68.22,42.16,68.55,41.63"/>
			<path d="M73.39,51.88c1.03-0.06,2.08-0.04,3.12-0.01c0,0.09,0.01,0.28,0.01,0.38c-0.99,0.35-2.09,0.26-3.12,0.09
				C73.41,52.19,73.39,52.04,73.39,51.88"/>
			<path d="M73.19,53.02c1.09,0.18,2.19,0.04,3.3,0.07v0.22c-0.89-0.01-1.77,0.01-2.65,0C73.58,53.34,73.39,53.14,73.19,53.02"/>
			<path d="M73.71,54.69c0.06-0.33,0.26-0.62,0.49-0.84c0.72-0.01,1.44-0.11,2.15,0.08c0.26,0.4,0.34,0.92,0.23,1.38
				c-0.2,0.67-0.73,1.16-1.07,1.76c-0.19,0.28-0.39,0.75-0.82,0.62c-0.53-0.57-1.14-1.11-1.44-1.85c-0.31-0.59-0.35-1.37,0.15-1.87
				c0.16,0.68-0.08,1.54,0.54,2.03C73.89,55.56,73.68,55.13,73.71,54.69"/>
			<path class="st3" d="M67.88,20.1c-8.23,5.73-4.66,18.78,5.36,19.77"/>
			<path class="st3" d="M76.6,39.96c6.96-0.37,14.77-11.24,5.61-20.03"/>
			<path d="M71.17,7.91c0.11-1.51,1.17-2.93,2.62-3.33c0.01,0,0.04-0.01,0.05-0.01c-0.53,0.29-1.06,0.65-1.36,1.2
				c-0.57,0.92-0.57,2.17,0.03,3.08c0.47,0.78,1.33,1.24,2.21,1.32c0,0.19,0,0.39,0,0.57c-0.22,0.12-0.47,0.25-0.58,0.49
				c-0.09,0.22-0.03,0.45-0.07,0.67c-0.14,0.13-0.31,0.2-0.47,0.3c-0.64-0.99-1.88-1.52-3.01-1.24c-1.18,0.24-2.11,1.35-2.2,2.57
				c-0.01,0.15-0.01,0.3-0.01,0.45v0.17v0.06c-0.05-0.19-0.09-0.38-0.11-0.58c0-0.2-0.01-0.4,0-0.59c0.07-0.91,0.47-1.8,1.13-2.43
				c0.54-0.56,1.27-0.89,2.02-1.03c-0.11-0.36-0.21-0.72-0.24-1.1C71.17,8.28,71.16,8.09,71.17,7.91"/>
			<path class="st4" d="M71.17,7.91c0.11-1.51,1.17-2.93,2.62-3.33c0.01,0,0.04-0.01,0.05-0.01c-0.53,0.29-1.06,0.65-1.36,1.2
				c-0.57,0.92-0.57,2.17,0.03,3.08c0.47,0.78,1.33,1.24,2.21,1.32c0,0.19,0,0.39,0,0.57c-0.22,0.12-0.47,0.25-0.58,0.49
				c-0.09,0.22-0.03,0.45-0.07,0.67c-0.14,0.13-0.31,0.2-0.47,0.3c-0.64-0.99-1.88-1.52-3.01-1.24c-1.18,0.24-2.11,1.35-2.2,2.57
				c-0.01,0.15-0.01,0.3-0.01,0.45v0.17v0.06c-0.05-0.19-0.09-0.38-0.11-0.58c0-0.2-0.01-0.4,0-0.59c0.07-0.91,0.47-1.8,1.13-2.43
				c0.54-0.56,1.27-0.89,2.02-1.03c-0.11-0.36-0.21-0.72-0.24-1.1C71.17,8.28,71.16,8.09,71.17,7.91z"/>
			<path d="M76.03,4.6c0.01,0,0.04,0.01,0.05,0.01c1.4,0.42,2.44,1.83,2.51,3.3c0.06,0.57-0.05,1.15-0.26,1.68
				c0.53,0.11,1.06,0.27,1.52,0.59c0.94,0.59,1.57,1.65,1.67,2.75c0,0.05,0.01,0.14,0.02,0.18c0.01,0.16,0.02,0.32,0,0.48
				c0,0.05-0.01,0.14-0.02,0.18c-0.01,0.13-0.03,0.26-0.06,0.39c0-0.07-0.01-0.15-0.01-0.22c0-0.54-0.11-1.09-0.39-1.56
				c-0.44-0.79-1.26-1.34-2.14-1.44c-0.21-0.01-0.42-0.01-0.63,0c-0.83,0.08-1.59,0.58-2.06,1.28c-0.17-0.1-0.33-0.2-0.5-0.3
				c0.02-0.29,0.04-0.62-0.16-0.85c-0.12-0.19-0.33-0.25-0.52-0.34c0-0.19-0.01-0.38-0.01-0.57c0.56-0.05,1.13-0.24,1.58-0.61
				c0.6-0.46,0.99-1.18,1.08-1.94c0.01-0.23,0.02-0.45,0-0.68c-0.09-0.75-0.47-1.46-1.06-1.93C76.45,4.86,76.24,4.73,76.03,4.6"/>
			<path class="st4" d="M76.03,4.6c0.01,0,0.04,0.01,0.05,0.01c1.4,0.42,2.44,1.83,2.51,3.3c0.06,0.57-0.05,1.15-0.26,1.68
				c0.53,0.11,1.06,0.27,1.52,0.59c0.94,0.59,1.57,1.65,1.67,2.75c0,0.05,0.01,0.14,0.02,0.18c0.01,0.16,0.02,0.32,0,0.48
				c0,0.05-0.01,0.14-0.02,0.18c-0.01,0.13-0.03,0.26-0.06,0.39c0-0.07-0.01-0.15-0.01-0.22c0-0.54-0.11-1.09-0.39-1.56
				c-0.44-0.79-1.26-1.34-2.14-1.44c-0.21-0.01-0.42-0.01-0.63,0c-0.83,0.08-1.59,0.58-2.06,1.28c-0.17-0.1-0.33-0.2-0.5-0.3
				c0.02-0.29,0.04-0.62-0.16-0.85c-0.12-0.19-0.33-0.25-0.52-0.34c0-0.19-0.01-0.38-0.01-0.57c0.56-0.05,1.13-0.24,1.58-0.61
				c0.6-0.46,0.99-1.18,1.08-1.94c0.01-0.23,0.02-0.45,0-0.68c-0.09-0.75-0.47-1.46-1.06-1.93C76.45,4.86,76.24,4.73,76.03,4.6z"/>
			<path d="M72.79,8.71c0.56-0.37,1.2-0.65,1.87-0.67c0.83-0.08,1.65,0.2,2.32,0.69c-0.19,0.23-0.4,0.45-0.63,0.64
				c-0.38-0.21-0.79-0.4-1.23-0.43c-0.17-0.01-0.34-0.02-0.51,0c-0.43,0.05-0.83,0.22-1.2,0.44C73.19,9.18,72.97,8.96,72.79,8.71"/>
			<path class="st4" d="M72.79,8.71c0.56-0.37,1.2-0.65,1.87-0.67c0.83-0.08,1.65,0.2,2.32,0.69c-0.19,0.23-0.4,0.45-0.63,0.64
				c-0.38-0.21-0.79-0.4-1.23-0.43c-0.17-0.01-0.34-0.02-0.51,0c-0.43,0.05-0.83,0.22-1.2,0.44C73.19,9.18,72.97,8.96,72.79,8.71z"
				/>
			<path d="M71.39,11.21c0.05-0.03,0.07-0.01,0.12,0c0.24,0.01,0.5,0.13,0.75,0.22c0.01,0.14,0.02,0.28,0.02,0.43
				c0.07,0.92,0.68,1.73,1.46,2.17c-0.06,0.29-0.15,0.58-0.25,0.86c-1.11-0.49-1.97-1.59-2.08-2.83c0-0.05-0.01-0.14-0.01-0.19
				C71.39,11.69,71.39,11.4,71.39,11.21"/>
			<path class="st4" d="M71.39,11.21c0.05-0.03,0.07-0.01,0.12,0c0.24,0.01,0.5,0.13,0.75,0.22c0.01,0.14,0.02,0.28,0.02,0.43
				c0.07,0.92,0.68,1.73,1.46,2.17c-0.06,0.29-0.15,0.58-0.25,0.86c-1.11-0.49-1.97-1.59-2.08-2.83c0-0.05-0.01-0.14-0.01-0.18
				C71.39,11.69,71.39,11.4,71.39,11.21z"/>
			<path d="M77.55,11.46c0.28-0.09,0.57-0.18,0.87-0.21c0,0.05,0,0.11,0.01,0.17c0,0.16,0,0.32,0,0.47
				c-0.08,1.31-0.94,2.52-2.12,3.04c-0.11-0.28-0.17-0.58-0.23-0.87c0.42-0.24,0.81-0.55,1.05-0.98
				C77.45,12.6,77.55,12.02,77.55,11.46"/>
			<path class="st4" d="M77.55,11.46c0.28-0.09,0.57-0.18,0.87-0.21c0,0.05,0,0.11,0.01,0.17c0,0.16,0,0.32,0,0.47
				c-0.08,1.31-0.94,2.52-2.12,3.04c-0.11-0.28-0.17-0.58-0.23-0.87c0.42-0.24,0.81-0.55,1.05-0.98
				C77.45,12.6,77.55,12.02,77.55,11.46z"/>
			<path d="M74.23,12.2c0.24,0.19,0.53,0.32,0.84,0.25c0.17-0.06,0.32-0.17,0.49-0.23c0.18,0.07,0.34,0.19,0.5,0.29
				c-0.25,0.56-0.38,1.19-0.26,1.8c0.17,1.15,1.11,2.14,2.24,2.34c0.77,0.17,1.65-0.05,2.29-0.52c0,0.03-0.02,0.08-0.04,0.1
				c-0.57,0.49-1.33,0.84-2.1,0.91c-0.25,0-0.49,0.01-0.73,0c-1.01-0.1-1.94-0.65-2.58-1.44c-0.63,0.78-1.56,1.31-2.56,1.4
				c-0.23,0.01-0.47,0.01-0.7,0.01c-0.87-0.1-1.71-0.48-2.31-1.13c0.86,0.68,2.08,0.91,3.08,0.42c0.92-0.42,1.56-1.36,1.64-2.38
				c0-0.16,0.01-0.32,0-0.49c-0.03-0.37-0.15-0.72-0.29-1.06C73.91,12.38,74.07,12.29,74.23,12.2"/>
			<path class="st4" d="M74.23,12.2c0.24,0.19,0.53,0.32,0.84,0.25c0.17-0.06,0.32-0.17,0.49-0.23c0.18,0.07,0.34,0.19,0.5,0.29
				c-0.25,0.56-0.38,1.19-0.26,1.8c0.17,1.15,1.11,2.14,2.24,2.34c0.77,0.17,1.65-0.05,2.29-0.52c0,0.03-0.02,0.08-0.04,0.1
				c-0.57,0.49-1.33,0.84-2.1,0.91c-0.25,0-0.49,0.01-0.73,0c-1.01-0.1-1.94-0.65-2.58-1.44c-0.63,0.78-1.56,1.31-2.56,1.4
				c-0.23,0.01-0.47,0.01-0.7,0.01c-0.87-0.1-1.71-0.48-2.31-1.13c0.86,0.68,2.08,0.91,3.08,0.42c0.92-0.42,1.56-1.36,1.64-2.38
				c0-0.16,0.01-0.32,0-0.49c-0.03-0.37-0.15-0.72-0.29-1.06C73.91,12.38,74.07,12.29,74.23,12.2z"/>
		</g>
	</g>
</g>
</svg>
